<svg width="21" height="22" viewBox="0 0 21 22" fill="none" xmlns="http://www.w3.org/2000/svg">
<g id="Group">
<path id="Vector" d="M2.5 15.3364V18.8364C2.5 19.3669 2.71071 19.8756 3.08579 20.2506C3.46086 20.6257 3.96957 20.8364 4.5 20.8364H16.5C17.0304 20.8364 17.5391 20.6257 17.9142 20.2506C18.2893 19.8756 18.5 19.3669 18.5 18.8364V15.3364M1.5 12.8364V11.8364C1.5 11.306 1.71071 10.7973 2.08579 10.4222C2.46086 10.0471 2.96957 9.83643 3.5 9.83643H17.5C18.0304 9.83643 18.5391 10.0471 18.9142 10.4222C19.2893 10.7973 19.5 11.306 19.5 11.8364V12.8364M10.5 6.83643V9.83643M10.5 6.83643C11.762 6.83643 12.5 5.86843 12.5 4.21143C12.5 2.55443 10.5 0.836426 10.5 0.836426C10.5 0.836426 8.5 2.55443 8.5 4.21143C8.5 5.86843 9.238 6.83643 10.5 6.83643Z" stroke="#8331A7" stroke-width="1.5" stroke-linecap="round" stroke-linejoin="round"/>
<path id="Vector_2" d="M1.5 12.8364C1.5 13.6321 1.81607 14.3951 2.37868 14.9577C2.94129 15.5204 3.70435 15.8364 4.5 15.8364C5.29565 15.8364 6.05871 15.5204 6.62132 14.9577C7.18393 14.3951 7.5 13.6321 7.5 12.8364C7.5 13.6321 7.81607 14.3951 8.37868 14.9577C8.94129 15.5204 9.70435 15.8364 10.5 15.8364C11.2956 15.8364 12.0587 15.5204 12.6213 14.9577C13.1839 14.3951 13.5 13.6321 13.5 12.8364C13.5 13.6321 13.8161 14.3951 14.3787 14.9577C14.9413 15.5204 15.7044 15.8364 16.5 15.8364C17.2956 15.8364 18.0587 15.5204 18.6213 14.9577C19.1839 14.3951 19.5 13.6321 19.5 12.8364" stroke="#8331A7" stroke-width="1.5" stroke-linecap="round" stroke-linejoin="round"/>
</g>
</svg>
