<svg width="16" height="19" viewBox="0 0 16 19" fill="none" xmlns="http://www.w3.org/2000/svg">
<g id="elements">
<g id="Icon">
<path fill-rule="evenodd" clip-rule="evenodd" d="M8.04547 0.541748H7.95449C6.42172 0.541737 5.20998 0.541727 4.26212 0.664504C3.28925 0.790522 2.50041 1.05568 1.87599 1.65727C1.24831 2.26201 0.968671 3.03127 0.836354 3.97945C0.708289 4.89716 0.708301 6.06846 0.708317 7.54127L0.708314 14.5383C0.708282 15.4529 0.708255 16.2128 0.796087 16.7838C0.886963 17.3746 1.09878 17.9497 1.68296 18.2616C2.20395 18.5398 2.77698 18.4833 3.26284 18.3358C3.75426 18.1866 4.25376 17.9158 4.71111 17.6268C5.1728 17.3351 5.62552 17.0025 6.01914 16.7116L6.06543 16.6774C6.45111 16.3923 6.76088 16.1633 6.99739 16.0208C7.33037 15.8203 7.54061 15.6946 7.71103 15.6143C7.86833 15.5402 7.94473 15.5284 7.99998 15.5284C8.05523 15.5284 8.13164 15.5402 8.28893 15.6143C8.45936 15.6946 8.6696 15.8203 9.00257 16.0208C9.23909 16.1633 9.54886 16.3923 9.93454 16.6774L9.98083 16.7116C10.3744 17.0025 10.8272 17.3351 11.2889 17.6268C11.7462 17.9158 12.2457 18.1866 12.7371 18.3358C13.223 18.4833 13.796 18.5398 14.317 18.2616C14.9012 17.9497 15.113 17.3746 15.2039 16.7838C15.2917 16.2128 15.2917 15.4529 15.2917 14.5383V7.54129C15.2917 6.06847 15.2917 4.89717 15.1636 3.97945C15.0313 3.03127 14.7517 2.26201 14.124 1.65727C13.4996 1.05568 12.7107 0.790522 11.7378 0.664504C10.79 0.541727 9.57825 0.541737 8.04547 0.541748ZM2.74327 2.55746C3.09516 2.21843 3.58015 2.01328 4.4227 1.90415C5.28091 1.79298 6.4116 1.79175 7.99998 1.79175C9.58837 1.79175 10.7191 1.79298 11.5773 1.90415C12.4198 2.01328 12.9048 2.21843 13.2567 2.55746C13.6053 2.89334 13.8138 3.35134 13.9256 4.15221C14.0402 4.97353 14.0417 6.05747 14.0417 7.58969V14.4841C14.0417 15.4668 14.0399 16.1293 13.9684 16.5938C13.8983 17.0497 13.7881 17.127 13.7282 17.159C13.6256 17.2138 13.4385 17.2424 13.1002 17.1397C12.7675 17.0387 12.3789 16.837 11.9566 16.5701C11.5387 16.306 11.1203 15.9994 10.7238 15.7063L10.649 15.651C10.2913 15.3864 9.93681 15.1243 9.64739 14.95L9.62291 14.9353C9.32169 14.7539 9.05667 14.5943 8.82165 14.4835C8.56715 14.3636 8.30323 14.2784 7.99998 14.2784C7.69674 14.2784 7.43281 14.3636 7.17832 14.4835C6.9433 14.5943 6.67827 14.7539 6.37705 14.9353L6.35258 14.95C6.06315 15.1243 5.70872 15.3864 5.35098 15.651L5.27618 15.7063C4.87971 15.9994 4.46131 16.306 4.04337 16.5701C3.62108 16.837 3.23244 17.0387 2.89972 17.1397C2.56145 17.2424 2.37436 17.2138 2.27175 17.159C2.21189 17.127 2.10169 17.0497 2.03156 16.5938C1.96011 16.1293 1.95832 15.4668 1.95832 14.4841V7.58969C1.95832 6.05747 1.95974 4.97353 2.07436 4.15221C2.18612 3.35134 2.39463 2.89334 2.74327 2.55746Z" fill="#7E3996"/>
<path d="M4.4227 1.90415C3.58015 2.01328 3.09516 2.21843 2.74327 2.55746C2.39463 2.89334 2.18612 3.35134 2.07436 4.15221C1.95974 4.97353 1.95832 6.05747 1.95832 7.58969V14.4841C1.95832 15.4668 1.96011 16.1293 2.03156 16.5938C2.10169 17.0497 2.21189 17.127 2.27175 17.159C2.37436 17.2138 2.56145 17.2424 2.89972 17.1397C3.23244 17.0387 3.62108 16.837 4.04337 16.5701C4.46131 16.306 4.87971 15.9994 5.27618 15.7063L5.35098 15.651C5.70872 15.3864 6.06315 15.1243 6.35258 14.95L6.37705 14.9353C6.67827 14.7539 6.9433 14.5943 7.17832 14.4835C7.43281 14.3636 7.69674 14.2784 7.99998 14.2784C8.30323 14.2784 8.56715 14.3636 8.82165 14.4835C9.05667 14.5943 9.32169 14.7539 9.62291 14.9353L9.64739 14.95C9.93681 15.1243 10.2913 15.3864 10.649 15.651L10.7238 15.7063C11.1203 15.9994 11.5387 16.306 11.9566 16.5701C12.3789 16.837 12.7675 17.0387 13.1002 17.1397C13.4385 17.2424 13.6256 17.2138 13.7282 17.159C13.7881 17.127 13.8983 17.0497 13.9684 16.5938C14.0399 16.1293 14.0417 15.4668 14.0417 14.4841V7.58969C14.0417 6.05747 14.0402 4.97353 13.9256 4.15221C13.8138 3.35134 13.6053 2.89334 13.2567 2.55746C12.9048 2.21843 12.4198 2.01328 11.5773 1.90415C10.7191 1.79298 9.58837 1.79175 7.99998 1.79175C6.4116 1.79175 5.28091 1.79298 4.4227 1.90415Z" fill="#7E3996"/>
</g>
<g id="Icon_2">
<path fill-rule="evenodd" clip-rule="evenodd" d="M7.99883 3.875C8.55867 3.875 8.93367 4.29443 9.13599 4.70414L9.13635 4.70489L9.71597 5.87369L9.7208 5.8783C9.72478 5.88193 9.72946 5.88581 9.73465 5.88968C9.73984 5.89354 9.74497 5.89695 9.74971 5.8998L9.7566 5.90368L10.8025 6.07889C11.2527 6.15454 11.7425 6.39582 11.9081 6.9154C12.0735 7.43415 11.815 7.91452 11.4919 8.23836L11.4912 8.23913L10.678 9.059C10.6752 9.06488 10.6715 9.07398 10.6682 9.08557C10.6645 9.09846 10.6628 9.10949 10.6622 9.11678L10.8949 10.1316C11 10.5911 11.01 11.2294 10.5146 11.5936C10.0165 11.9596 9.4098 11.754 9.00544 11.5132L8.02486 10.9279L8.01865 10.9271C8.01324 10.9265 8.00709 10.9261 8.00049 10.9261C7.9939 10.9261 7.98761 10.9265 7.98194 10.9271C7.97824 10.9275 7.97515 10.928 7.9727 10.9285L6.99336 11.513C6.58761 11.7557 5.9823 11.958 5.48494 11.5921C4.99065 11.2285 4.99784 10.5922 5.10367 10.131L5.33631 9.11678C5.3357 9.10949 5.33398 9.09846 5.33032 9.08557C5.32703 9.07398 5.32331 9.06488 5.32047 9.059L4.50582 8.23762C4.18478 7.91392 3.92732 7.43423 4.09128 6.91653C4.25599 6.39645 4.74547 6.1546 5.19628 6.07884L6.23862 5.90423L6.24455 5.90083C6.24932 5.89794 6.25449 5.89448 6.25975 5.89055C6.26501 5.88661 6.26977 5.88265 6.27384 5.87893L6.27908 5.8739L6.85995 4.70256C7.06385 4.29353 7.43978 3.875 7.99883 3.875ZM7.39351 6.44019L7.97866 5.26023C7.98506 5.24741 7.99159 5.23499 7.99773 5.22391C8.00348 5.23446 8.00936 5.24578 8.01534 5.2579L8.01591 5.25906L8.60164 6.44019C8.69718 6.63537 8.8475 6.78765 8.98853 6.89258C9.13041 6.99813 9.31962 7.09779 9.53247 7.13356L10.5957 7.31166C10.6118 7.31437 10.6266 7.31731 10.6401 7.32038C10.6302 7.33153 10.6191 7.34338 10.6067 7.35587L10.6051 7.35738L9.77857 8.19078C9.61544 8.35527 9.51756 8.56148 9.46569 8.74417C9.4137 8.92728 9.38938 9.15203 9.4389 9.37479L9.67648 10.4106C9.68072 10.4292 9.68439 10.4468 9.68753 10.4636C9.67422 10.4563 9.66001 10.4482 9.64558 10.4396L8.64953 9.84506C8.43926 9.7195 8.20202 9.67608 8.00049 9.67608C7.79832 9.67608 7.56254 9.71972 7.35303 9.84263L6.35181 10.4402C6.33761 10.4487 6.32396 10.4566 6.31087 10.4638C6.31402 10.447 6.31773 10.4292 6.32201 10.4106L6.55866 9.37889L6.55958 9.37478C6.60909 9.15203 6.58478 8.92729 6.53279 8.74417C6.48093 8.56149 6.38304 8.35527 6.21991 8.19078L5.39334 7.35738C5.38037 7.3443 5.36886 7.33192 5.35868 7.3203C5.37215 7.31726 5.38715 7.3143 5.40312 7.31161L6.46602 7.13356L6.46823 7.13318C6.68004 7.09692 6.86788 6.99661 7.0082 6.8917C7.14802 6.78718 7.29807 6.63518 7.39351 6.44019Z" fill="#F8FAFC"/>
<path d="M7.39351 6.44019L7.97866 5.26023C7.98506 5.24741 7.99159 5.23499 7.99773 5.22391C8.00348 5.23446 8.00936 5.24578 8.01534 5.2579L8.01591 5.25906L8.60164 6.44019C8.69718 6.63537 8.8475 6.78765 8.98853 6.89258C9.13041 6.99813 9.31962 7.09779 9.53247 7.13356L10.5957 7.31166C10.6118 7.31437 10.6266 7.31731 10.6401 7.32038C10.6302 7.33153 10.6191 7.34338 10.6067 7.35587L10.6051 7.35738L9.77857 8.19078C9.61544 8.35527 9.51756 8.56148 9.46569 8.74417C9.4137 8.92728 9.38938 9.15203 9.4389 9.37479L9.67648 10.4106C9.68072 10.4292 9.68439 10.4468 9.68753 10.4636C9.67422 10.4563 9.66001 10.4482 9.64558 10.4396L8.64953 9.84506C8.43926 9.7195 8.20202 9.67608 8.00049 9.67608C7.79832 9.67608 7.56254 9.71972 7.35303 9.84263L6.35181 10.4402C6.33761 10.4487 6.32396 10.4566 6.31087 10.4638C6.31402 10.447 6.31773 10.4292 6.32201 10.4106L6.55866 9.37889L6.55958 9.37478C6.60909 9.15203 6.58478 8.92729 6.53279 8.74417C6.48093 8.56149 6.38304 8.35527 6.21991 8.19078L5.39334 7.35738C5.38037 7.3443 5.36886 7.33192 5.35868 7.3203C5.37215 7.31726 5.38715 7.3143 5.40312 7.31161L6.46602 7.13356L6.46823 7.13318C6.68004 7.09692 6.86788 6.99661 7.0082 6.8917C7.14802 6.78718 7.29807 6.63518 7.39351 6.44019Z" fill="#F8FAFC"/>
</g>
</g>
</svg>
