<svg width="16" height="19" viewBox="0 0 16 19" fill="none" xmlns="http://www.w3.org/2000/svg">
<g id="elements">
<g id="Icon">
<path fill-rule="evenodd" clip-rule="evenodd" d="M7.95486 0.541748H8.04584C9.57861 0.541737 10.7904 0.541728 11.7382 0.664504C12.7111 0.790523 13.4999 1.05569 14.1243 1.65727C14.752 2.26201 15.0317 3.03127 15.164 3.97945C15.292 4.89717 15.292 6.06847 15.292 7.54129V14.5383C15.2921 15.4529 15.2921 16.2128 15.2042 16.7838C15.1134 17.3746 14.9016 17.9497 14.3174 18.2616C13.7964 18.5398 13.2234 18.4833 12.7375 18.3358C12.2461 18.1866 11.7466 17.9158 11.2892 17.6268C10.8275 17.3351 10.3748 17.0025 9.98119 16.7116L9.93491 16.6774C9.54923 16.3923 9.23946 16.1633 9.00294 16.0208C8.66997 15.8203 8.45973 15.6946 8.2893 15.6143C8.13201 15.5402 8.0556 15.5284 8.00035 15.5284C7.9451 15.5284 7.8687 15.5402 7.7114 15.6143C7.54097 15.6946 7.33073 15.8203 6.99776 16.0208C6.76125 16.1633 6.45148 16.3923 6.0658 16.6774L6.01951 16.7116C5.62589 17.0025 5.17317 17.3351 4.71147 17.6268C4.25413 17.9158 3.75463 18.1866 3.26321 18.3358C2.77735 18.4833 2.20431 18.5398 1.68333 18.2616C1.09915 17.9497 0.88733 17.3746 0.796454 16.7838C0.708623 16.2128 0.708649 15.4529 0.70868 14.5383L0.708684 7.54127C0.708669 6.06846 0.708657 4.89716 0.836721 3.97945C0.969038 3.03127 1.24868 2.26201 1.87636 1.65727C2.50077 1.05569 3.28961 0.790523 4.26249 0.664504C5.21035 0.541728 6.4221 0.541737 7.95486 0.541748ZM4.42306 1.90415C3.58052 2.01328 3.09553 2.21843 2.74363 2.55746C2.395 2.89334 2.18649 3.35134 2.07473 4.15221C1.96011 4.97353 1.95868 6.05747 1.95868 7.58969V14.4841C1.95868 15.4668 1.96048 16.1293 2.03192 16.5938C2.10206 17.0497 2.21226 17.127 2.27212 17.159C2.37473 17.2138 2.56181 17.2424 2.90009 17.1397C3.2328 17.0387 3.62145 16.837 4.04374 16.5701C4.46168 16.306 4.88008 15.9994 5.27655 15.7063L5.35135 15.651C5.70908 15.3864 6.06351 15.1243 6.35295 14.95L6.37742 14.9353C6.67864 14.7539 6.94366 14.5943 7.17869 14.4835C7.43318 14.3636 7.69711 14.2784 8.00035 14.2784C8.3036 14.2784 8.56752 14.3636 8.82202 14.4835C9.05704 14.5943 9.32206 14.7539 9.62328 14.9353L9.64775 14.95C9.93718 15.1243 10.2916 15.3864 10.6493 15.651L10.7242 15.7063C11.1206 15.9994 11.539 16.306 11.957 16.5701C12.3793 16.837 12.7679 17.0387 13.1006 17.1397C13.4389 17.2424 13.626 17.2138 13.7286 17.159C13.7884 17.127 13.8986 17.0497 13.9688 16.5938C14.0402 16.1293 14.042 15.4668 14.042 14.4841V7.58969C14.042 6.05747 14.0406 4.97353 13.926 4.15221C13.8142 3.35134 13.6057 2.89334 13.2571 2.55746C12.9052 2.21843 12.4202 2.01328 11.5776 1.90415C10.7194 1.79298 9.58874 1.79175 8.00035 1.79175C6.41196 1.79175 5.28128 1.79298 4.42306 1.90415Z" fill="#7E3996"/>
<path fill-rule="evenodd" clip-rule="evenodd" d="M7.99921 3.87508C8.55905 3.87508 8.93405 4.29451 9.13637 4.70422L9.13674 4.70497L9.71635 5.87377L9.72118 5.87838C9.72517 5.88201 9.72985 5.8859 9.73504 5.88976C9.74023 5.89362 9.74535 5.89703 9.7501 5.89988L9.75698 5.90377L10.8029 6.07897C11.2531 6.15462 11.7428 6.3959 11.9085 6.91548C12.0739 7.43424 11.8153 7.9146 11.4923 8.23844L11.4915 8.23921L10.6784 9.05908C10.6756 9.06496 10.6718 9.07406 10.6686 9.08565C10.6649 9.09854 10.6632 9.10957 10.6626 9.11686L10.8953 10.1317C11.0004 10.5912 11.0104 11.2295 10.515 11.5936C10.0169 11.9597 9.41018 11.7541 9.00583 11.5133L8.02525 10.928L8.01903 10.9272C8.01363 10.9265 8.00747 10.9262 8.00088 10.9262C7.99428 10.9262 7.98799 10.9265 7.98232 10.9272C7.97863 10.9276 7.97553 10.9281 7.97309 10.9286L6.99375 11.5131C6.588 11.7558 5.98269 11.9581 5.48532 11.5922C4.99104 11.2286 4.99822 10.5923 5.10405 10.1311L5.33669 9.11686C5.33609 9.10957 5.33436 9.09854 5.3307 9.08565C5.32741 9.07406 5.32369 9.06496 5.32085 9.05908L4.50621 8.2377C4.18517 7.914 3.9277 7.43431 4.09166 6.91661C4.25638 6.39653 4.74586 6.15468 5.19667 6.07892L6.239 5.90431L6.24494 5.90091C6.2497 5.89802 6.25487 5.89456 6.26014 5.89063C6.2654 5.8867 6.27016 5.88273 6.27423 5.87901L6.27947 5.87398L6.86034 4.70264C7.06424 4.29361 7.44017 3.87508 7.99921 3.87508ZM7.3939 6.44027L7.97905 5.26031C7.98545 5.24749 7.99198 5.23507 7.99811 5.22399C8.00386 5.23454 8.00974 5.24586 8.01572 5.25798L8.0163 5.25915L8.60202 6.44027C8.69756 6.63545 8.84788 6.78773 8.98892 6.89266C9.1308 6.99821 9.32001 7.09787 9.53286 7.13364L10.5961 7.31174C10.6122 7.31445 10.627 7.31739 10.6405 7.32046C10.6306 7.33161 10.6195 7.34346 10.607 7.35595L10.6055 7.35746L9.77896 8.19087C9.61583 8.35535 9.51795 8.56157 9.46608 8.74425C9.41409 8.92737 9.38976 9.15211 9.43928 9.37487L9.67686 10.4106C9.68111 10.4292 9.68477 10.4469 9.68792 10.4637C9.6746 10.4564 9.6604 10.4482 9.64596 10.4396L8.64991 9.84514C8.43964 9.71958 8.20241 9.67616 8.00088 9.67616C7.79871 9.67616 7.56293 9.7198 7.35341 9.84271L6.3522 10.4403C6.338 10.4488 6.32435 10.4566 6.31126 10.4639C6.31441 10.4471 6.31812 10.4293 6.3224 10.4106L6.55905 9.37897L6.55996 9.37487C6.60948 9.15211 6.58517 8.92737 6.53318 8.74425C6.48131 8.56157 6.38343 8.35535 6.2203 8.19087L5.39372 7.35746C5.38075 7.34439 5.36925 7.33201 5.35907 7.32038C5.37254 7.31734 5.38754 7.31438 5.4035 7.31169L6.4664 7.13364L6.46862 7.13326C6.68043 7.097 6.86827 6.99669 7.00859 6.89179C7.1484 6.78726 7.29846 6.63526 7.3939 6.44027Z" fill="#7E3996"/>
</g>
</g>
</svg>
