<svg width="23" height="22" viewBox="0 0 23 22" fill="none" xmlns="http://www.w3.org/2000/svg">
<g id="Group">
<path id="Vector" d="M2.964 19.536C4.43 21 6.786 21 11.5 21C16.214 21 18.571 21 20.035 19.535C21.5 18.072 21.5 15.714 21.5 11C21.5 6.286 21.5 3.929 20.035 2.464C18.572 1 16.214 1 11.5 1C6.786 1 4.429 1 2.964 2.464C1.5 3.93 1.5 6.286 1.5 11C1.5 15.714 1.5 18.072 2.964 19.536Z" stroke="#9CA3AF" stroke-width="1.5"/>
<path id="Vector_2" d="M17.5 7.5H13.5M17.5 13.5H13.5M17.5 16.5H13.5M9.5 7.5H7.5M7.5 7.5H5.5M7.5 7.5V5.5M7.5 7.5V9.5M9 13.5L7.5 15M7.5 15L6 16.5M7.5 15L6 13.5M7.5 15L9 16.5" stroke="#9CA3AF" stroke-width="1.5" stroke-linecap="round"/>
</g>
</svg>
