<svg width="24" height="24" viewBox="0 0 24 24" fill="none" xmlns="http://www.w3.org/2000/svg">
<path d="M7 0.75V4.5" stroke="#D40512" stroke-width="1.25" stroke-miterlimit="10" stroke-linecap="round" stroke-linejoin="round"/>
<path d="M17 0.75V4.5" stroke="#D40512" stroke-width="1.25" stroke-miterlimit="10" stroke-linecap="round" stroke-linejoin="round"/>
<path d="M2.625 7.11328L22 7.00037" stroke="#D40512" stroke-width="1.25" stroke-miterlimit="10" stroke-linecap="round" stroke-linejoin="round"/>
<path d="M22 7.74324V17.5068C22 20.9527 20.3333 23.25 16.4444 23.25H7.55556C3.66667 23.25 2 20.9527 2 17.5068V7.74324C2 4.2973 3.66667 2 7.55556 2H16.4444C20.3333 2 22 4.2973 22 7.74324Z" stroke="#D40512" stroke-width="1.25" stroke-miterlimit="10" stroke-linecap="round" stroke-linejoin="round"/>
<path fill-rule="evenodd" clip-rule="evenodd" d="M7.61813 13.625H7.62936H7.61813Z" fill="#D40512"/>
<path d="M7.61813 13.625H7.62936" stroke="#D40512" stroke-width="2.5" stroke-linecap="round" stroke-linejoin="round"/>
<path fill-rule="evenodd" clip-rule="evenodd" d="M11.8656 13.625H11.8769H11.8656Z" fill="#D40512"/>
<path d="M11.8656 13.625H11.8769" stroke="#D40512" stroke-width="2.5" stroke-linecap="round" stroke-linejoin="round"/>
<path d="M16.1131 13.625H16.1244" stroke="#D40512" stroke-width="2.5" stroke-linecap="round" stroke-linejoin="round"/>
<path d="M7.61813 17.875H7.62936" stroke="#D40512" stroke-width="2.5" stroke-linecap="round" stroke-linejoin="round"/>
<path d="M11.8657 17.875H11.8769" stroke="#D40512" stroke-width="2.5" stroke-linecap="round" stroke-linejoin="round"/>
<path d="M16.1133 17.875H16.1245" stroke="#D40512" stroke-width="2.5" stroke-linecap="round" stroke-linejoin="round"/>
</svg>
