<svg xmlns="http://www.w3.org/2000/svg" xmlns:xlink="http://www.w3.org/1999/xlink" width="15"
    height="15" viewBox="0 0 15 15">
    <defs>
        <clipPath id="clip-path">
            <rect id="Rectangle_24126" width="15" height="15" transform="translate(345 236)"
                fill="#fff" stroke="#707070" stroke-width="1" />
        </clipPath>
    </defs>
    <g id="Mask_Group_232" transform="translate(-345 -236)" clip-path="url(#clip-path)">
        <g id="svgexport-18_5_" transform="translate(345 236)">
            <path id="Path_43351"
                d="M3.057,9.971A15.913,15.913,0,0,0,8.35,14.117a8.238,8.238,0,0,0,2.962.877c.071,0,.14.006.211.006a2.453,2.453,0,0,0,1.9-.817.068.068,0,0,0,.012-.016,8.009,8.009,0,0,1,.6-.622c.146-.14.3-.286.438-.435a1.5,1.5,0,0,0-.006-2.235L12.6,9.007a1.512,1.512,0,0,0-1.094-.5A1.563,1.563,0,0,0,10.4,9L9.288,10.117c-.1-.059-.208-.112-.308-.162a3.843,3.843,0,0,1-.342-.186A11.776,11.776,0,0,1,5.826,7.208a6.782,6.782,0,0,1-.951-1.517c.292-.264.566-.541.83-.811.093-.1.19-.193.286-.289a1.593,1.593,0,0,0,.516-1.119,1.581,1.581,0,0,0-.516-1.119l-.926-.926c-.109-.109-.211-.214-.317-.323C4.542.892,4.328.674,4.116.479A1.55,1.55,0,0,0,3.022,0,1.6,1.6,0,0,0,1.916.482L.753,1.644A2.388,2.388,0,0,0,.042,3.173,5.752,5.752,0,0,0,.474,5.66,14.466,14.466,0,0,0,3.057,9.971ZM.8,3.239a1.644,1.644,0,0,1,.494-1.057L2.45,1.026A.837.837,0,0,1,3.022.761a.794.794,0,0,1,.559.27c.208.193.4.395.615.609.106.109.214.218.323.329l.926.926a.844.844,0,0,1,.292.581.844.844,0,0,1-.292.581c-.1.1-.193.2-.289.292-.289.292-.559.569-.858.833L4.284,5.2a.608.608,0,0,0-.155.69c0,.009.006.016.009.025A7.315,7.315,0,0,0,5.229,7.69a12.429,12.429,0,0,0,3,2.729,4.449,4.449,0,0,0,.41.224,3.844,3.844,0,0,1,.342.186l.034.019a.65.65,0,0,0,.3.078.659.659,0,0,0,.463-.211l1.162-1.162a.823.823,0,0,1,.569-.277.781.781,0,0,1,.55.277l1.874,1.871a.75.75,0,0,1-.009,1.172c-.131.14-.267.274-.413.413a8.951,8.951,0,0,0-.65.674,1.706,1.706,0,0,1-1.333.566c-.053,0-.109,0-.162-.006a7.484,7.484,0,0,1-2.679-.8A15.118,15.118,0,0,1,3.647,9.492,13.846,13.846,0,0,1,1.192,5.405,5.013,5.013,0,0,1,.8,3.239Z" />
        </g>
    </g>
</svg>
