<svg xmlns="http://www.w3.org/2000/svg" xmlns:xlink="http://www.w3.org/1999/xlink" width="156"
    height="156" viewBox="0 0 156 156">
    <g id="Group_44519" transform="translate(-30 -204)">
        <g id="Ellipse_17" transform="translate(30 204)" stroke="#000" stroke-width="2">
            <circle cx="78" cy="78" r="77" fill="none" />
        </g>
        <g id="Mask_Group_5" transform="translate(73.44 247.441)" clip-path="url(#clip-path)">
            <g id="svgexport-17_32_" transform="translate(10.074 9.528)">
                <path id="Path_6"
                    d="M49.791,15.911a15.911,15.911,0,1,0-29.862,7.657L.88,42.6a1.559,1.559,0,0,0-.308,1.744A1.111,1.111,0,0,0,.82,44.7l4.266,4.266a1.217,1.217,0,0,0,.356.247A1.549,1.549,0,0,0,7.186,48.9l2.637-2.637,3.8,3.8a1.217,1.217,0,0,0,.356.247A1.549,1.549,0,0,0,15.717,50L19.923,45.8a1.217,1.217,0,0,0,.247-.356,1.549,1.549,0,0,0-.308-1.744l-3.735-3.735L26.216,29.868A15.913,15.913,0,0,0,49.791,15.911ZM39.455,21.493a7.9,7.9,0,1,1,2.3-5.581A7.767,7.767,0,0,1,39.455,21.493Z"
                    transform="translate(-0.434 0)" fill="#D2010C" />
            </g>
        </g>
    </g>
</svg>
