<svg width="13" height="13" viewBox="0 0 13 13" fill="none" xmlns="http://www.w3.org/2000/svg">
<g id="elements">
<g id="Icon">
<path d="M2.62142 -0.00146398H10.3786C10.8923 -0.00148463 11.3284 -0.00150216 11.6724 0.045407C12.0366 0.0950612 12.3849 0.207147 12.6514 0.500603C12.9204 0.79663 12.994 1.15338 12.9996 1.51805C12.9998 1.53043 12.9997 1.54184 12.9993 1.55259C13.0005 1.81602 12.7692 2.01396 12.5059 2.00462L12.4251 2.00175C12.1808 1.99308 12.0029 1.77976 11.9991 1.53533C11.9953 1.29144 11.949 1.21705 11.9106 1.17481C11.8699 1.13 11.7928 1.07295 11.5367 1.03804L11.537 1.03619C11.2686 0.999639 10.9015 0.99854 10.3438 0.99854H2.65621C2.09818 0.99854 1.73107 0.99964 1.46263 1.03624C1.20656 1.07115 1.12942 1.1282 1.08871 1.17301C1.05034 1.21525 1.00401 1.28964 1.00023 1.53353C0.996213 1.79329 1.04008 2.14395 1.10945 2.68329C1.12873 2.83316 1.14562 2.8969 1.16429 2.94185C1.18144 2.98314 1.21182 3.03668 1.30076 3.14235C1.93961 3.90141 3.09231 5.23024 4.70436 6.43548C4.83387 6.53231 4.9527 6.65219 5.03866 6.81361C5.12336 6.97265 5.15803 7.13811 5.17117 7.29869C5.35755 9.57575 5.52609 11.1122 5.61837 11.8916C5.62119 11.9154 5.62984 11.9388 5.64316 11.9593C5.65679 11.9801 5.67192 11.9928 5.68222 11.9988L5.68568 12.0006C5.68805 11.9993 5.69125 11.9974 5.69532 11.9945C5.85673 11.8804 6.04407 11.7666 6.22089 11.6591L6.27335 11.6272C6.47255 11.506 6.66307 11.3882 6.83601 11.2629C7.19946 10.9996 7.378 10.7765 7.41732 10.5711C7.48646 10.2021 7.5633 9.73182 7.6302 9.11087C7.65978 8.83632 7.90633 8.63773 8.18088 8.66731C8.45543 8.69689 8.65402 8.94344 8.62444 9.21799C8.56828 9.73926 8.55787 9.80236 8.53158 9.96167C8.52238 10.0175 8.51122 10.0851 8.49547 10.1883C8.49461 10.2014 8.49322 10.2145 8.49128 10.2277C8.46143 10.4304 8.43903 10.5498 8.40733 10.7188L8.40085 10.7534C8.28687 11.3618 7.82284 11.7828 7.42276 12.0727C7.21339 12.2244 6.99115 12.361 6.79321 12.4815L6.74618 12.5101C6.56127 12.6225 6.40407 12.7181 6.27267 12.811C5.91233 13.0658 5.49661 13.0479 5.17885 12.8628C4.87898 12.6881 4.66797 12.3696 4.62531 12.0092C4.53167 11.2183 4.36191 9.66983 4.17451 7.38026C4.16849 7.30682 4.15702 7.28551 4.15607 7.28373C4.15541 7.2825 4.15372 7.2794 4.14812 7.27324C4.14186 7.26636 4.12935 7.25417 4.10557 7.23639C2.39968 5.96099 1.18788 4.56121 0.535671 3.78628C0.413868 3.64156 0.312806 3.49888 0.240748 3.32535C0.170207 3.15548 0.140128 2.9858 0.117626 2.81087L0.113004 2.77494C0.0495257 2.28168 -0.00491829 1.85862 0.000353542 1.51805C0.00599846 1.15338 0.0796127 0.796629 0.348536 0.500603C0.615124 0.207147 0.963349 0.095061 1.32753 0.045407C1.67159 -0.00150216 2.10775 -0.00148463 2.62142 -0.00146398Z" fill="#7E3996"/>
<path d="M8.85355 2.81344C8.65829 2.61818 8.34171 2.61818 8.14645 2.81344C7.95118 3.0087 7.95118 3.32528 8.14645 3.52055L9.79289 5.16699L8.14645 6.81344C7.95118 7.0087 7.95118 7.32528 8.14645 7.52055C8.34171 7.71581 8.65829 7.71581 8.85355 7.52055L10.5 5.8741L12.1464 7.52055C12.3417 7.71581 12.6583 7.71581 12.8536 7.52055C13.0488 7.32528 13.0488 7.0087 12.8536 6.81344L11.2071 5.16699L12.8536 3.52055C13.0488 3.32528 13.0488 3.0087 12.8536 2.81344C12.6583 2.61818 12.3417 2.61818 12.1464 2.81344L10.5 4.45989L8.85355 2.81344Z" fill="#7E3996"/>
</g>
</g>
</svg>
