<svg width="24" height="24" viewBox="0 0 24 24" fill="none" xmlns="http://www.w3.org/2000/svg">
<path fill-rule="evenodd" clip-rule="evenodd" d="M0 12C0 5.37 5.364 0 11.994 0C18.624 0 24 5.37 24 12C24 18.63 18.624 24 11.994 24C5.364 24 0 18.63 0 12ZM2.4 12C2.4 17.304 6.696 21.6 12 21.6C17.304 21.6 21.6 17.304 21.6 12C21.6 6.696 17.304 2.4 12 2.4C6.696 2.4 2.4 6.696 2.4 12ZM12.1 6C12.3761 6 12.6 6.22386 12.6 6.5V12.3L17.5635 15.245C17.8035 15.3874 17.8805 15.6987 17.7345 15.9366L17.353 16.558C17.2096 16.7917 16.9046 16.8663 16.6695 16.7251L10.8 13.2V6.5C10.8 6.22386 11.0239 6 11.3 6H12.1Z" fill="#D40512"/>
</svg>
