<svg width="24" height="24" viewBox="0 0 24 24" fill="none" xmlns="http://www.w3.org/2000/svg">
<path d="M12.0025 12.5889C11.9589 12.5889 11.911 12.5802 11.8674 12.5671L2.24454 9.178C2.08336 9.12137 1.97446 8.9689 1.97446 8.799C1.97446 8.62911 2.08336 8.47665 2.24454 8.42002L4.4183 7.65332C4.62739 7.57926 4.85827 7.68818 4.93233 7.90163C5.00639 8.11073 4.89747 8.34161 4.68401 8.41567L3.5906 8.799L11.9981 11.7612L20.4056 8.799L11.9981 5.83678L8.83113 6.95197C8.62203 7.02602 8.39115 6.91712 8.31709 6.70367C8.24304 6.49457 8.35196 6.26369 8.56541 6.18963L11.8674 5.02653C11.9545 4.99604 12.0504 4.99604 12.1375 5.02653L21.7604 8.41567C21.9216 8.4723 22.0305 8.62476 22.0305 8.79465C22.0305 8.96454 21.9216 9.11702 21.7604 9.17365L12.1375 12.5628C12.0939 12.5802 12.046 12.5889 12.0025 12.5889Z" fill="#D40512"/>
<path d="M12.0024 21.8769C11.9196 21.8769 11.8369 21.8507 11.7672 21.8028C11.6626 21.7287 11.5973 21.6024 11.5973 21.4717V12.1843C11.5973 11.9621 11.7802 11.7792 12.0024 11.7792C12.2246 11.7792 12.4075 11.9621 12.4075 12.1843V20.9011L21.2201 17.7951V11.6964C21.2201 11.4742 21.4031 11.2913 21.6253 11.2913C21.8474 11.2913 22.0304 11.4742 22.0304 11.6964V18.0826C22.0304 18.2525 21.9215 18.405 21.7603 18.4616L12.1374 21.8507C12.0939 21.8682 12.046 21.8769 12.0024 21.8769Z" fill="#D40512"/>
<path d="M13.9743 14.7186C13.8654 14.7186 13.7565 14.6751 13.6781 14.5879L11.7047 12.4577C11.6132 12.3576 11.5783 12.2182 11.6088 12.0875C11.6393 11.9568 11.7395 11.8479 11.8659 11.8043L21.4887 8.41519C21.6412 8.36292 21.8111 8.40211 21.92 8.52409L23.8934 10.6543C23.9848 10.7545 24.0197 10.8939 23.9892 11.0246C23.9587 11.1552 23.8585 11.2641 23.7322 11.3077L14.1093 14.6968C14.0614 14.7143 14.0178 14.7186 13.9743 14.7186ZM12.7153 12.3619L14.0875 13.8474L22.8784 10.7501L21.5062 9.26465L12.7153 12.3619Z" fill="#D40512"/>
<path d="M12.0025 21.8768C11.9589 21.8768 11.911 21.8681 11.8674 21.855L2.24454 18.4659C2.08336 18.4092 1.97446 18.2568 1.97446 18.0869V11.7007C1.97446 11.4785 2.15741 11.2955 2.37958 11.2955C2.60174 11.2955 2.78472 11.4785 2.78472 11.7007V17.7994L11.5973 20.9053V12.1885C11.5973 11.9664 11.7803 11.7834 12.0025 11.7834C12.2246 11.7834 12.4076 11.9664 12.4076 12.1885V21.476C12.4076 21.6067 12.3422 21.7287 12.2377 21.8071C12.168 21.8506 12.0852 21.8768 12.0025 21.8768Z" fill="#D40512"/>
<path d="M10.0275 14.7187C9.98398 14.7187 9.93607 14.71 9.8925 14.6969L0.269608 11.3078C0.143278 11.2642 0.0430934 11.1553 0.0125999 11.0247C-0.0222498 10.894 0.0169533 10.7546 0.108434 10.6544L2.0818 8.52418C2.1907 8.40656 2.36061 8.36301 2.51307 8.41528L12.136 11.8044C12.2623 11.848 12.3625 11.9569 12.393 12.0876C12.4278 12.2183 12.3886 12.3576 12.2971 12.4578L10.3238 14.588C10.2497 14.6752 10.1408 14.7187 10.0275 14.7187ZM1.11909 10.7502L9.90992 13.8475L11.2821 12.362L2.49129 9.26474L1.11909 10.7502Z" fill="#D40512"/>
<path d="M12.0024 8.60625C11.7802 8.60625 11.5973 8.4233 11.5973 8.20113V5.40878C11.5973 5.18662 11.7802 5.00366 12.0024 5.00366C12.2246 5.00366 12.4075 5.18662 12.4075 5.40878V8.20548C12.4075 8.42765 12.2246 8.60625 12.0024 8.60625Z" fill="#D40512"/>
<path d="M7.47045 10.9942C7.27006 10.9942 7.0958 10.8461 7.06967 10.6413C7.06531 10.5977 7.05661 10.5498 7.05225 10.5063C6.94334 10.7067 6.6994 10.7764 6.50337 10.6718C3.30591 8.92496 3.50629 3.80641 3.515 3.5886C3.52371 3.43178 3.61954 3.29237 3.76766 3.23139C3.91577 3.1704 4.0813 3.20525 4.19456 3.31416C4.32089 3.43613 7.31798 6.32866 7.87122 10.5368C7.90171 10.7589 7.74488 10.9593 7.52271 10.9898C7.50529 10.9942 7.48787 10.9942 7.47045 10.9942ZM4.35138 4.69509C4.46465 6.20669 4.94383 8.89883 6.89106 9.9661C6.92155 9.98353 6.9477 10.001 6.96948 10.0227C6.49029 7.6181 5.17906 5.70573 4.35138 4.69509Z" fill="#D40512"/>
<path d="M8.96336 11.5213C8.93722 11.5213 8.91108 11.5213 8.88494 11.5126C8.66713 11.469 8.52338 11.2599 8.56694 11.0377C9.15939 8.0058 7.73055 5.39207 6.96821 4.26381C6.51081 6.20668 7.36027 8.39787 7.36898 8.42401C7.45175 8.6331 7.3472 8.86398 7.14246 8.94675C6.93336 9.02952 6.70247 8.92933 6.6197 8.72023C6.57179 8.5939 5.41304 5.62297 6.46288 3.24012C6.51951 3.11379 6.63713 3.0223 6.77217 3.00488C6.91157 2.9831 7.04663 3.03536 7.13811 3.13991C7.26444 3.28802 10.2267 6.76865 9.36413 11.1946C9.32056 11.3862 9.15068 11.5213 8.96336 11.5213Z" fill="#D40512"/>
<path d="M10.8073 12.118C10.6592 12.118 10.5154 12.0353 10.4457 11.8915C10.3455 11.6911 10.4283 11.4515 10.6287 11.3514C10.8857 11.225 11.0556 11.0595 11.0556 10.9332C11.0556 10.6587 10.3586 10.2449 9.3044 10.2449H9.21727C8.96897 10.2536 8.8078 10.075 8.80344 9.85281C8.79909 9.63064 8.97334 9.44332 9.1955 9.43896H9.3044C10.7637 9.43896 11.8659 10.0793 11.8659 10.9332C11.8659 11.3906 11.5566 11.7957 10.9903 12.0745C10.9293 12.105 10.8683 12.118 10.8073 12.118Z" fill="#D40512"/>
<path d="M14.0061 11.8821C13.7839 11.8821 13.601 11.6991 13.601 11.477V9.74757C13.601 9.57332 13.7142 9.41649 13.8798 9.36421L16.7679 8.41019C16.8899 8.37099 17.0249 8.38841 17.1295 8.46683C17.234 8.54088 17.295 8.66286 17.295 8.79355V10.3269C17.295 10.5491 17.1121 10.7321 16.8899 10.7321C16.6677 10.7321 16.4848 10.5491 16.4848 10.3269V9.35115L14.4069 10.0351V11.4726C14.4069 11.7035 14.2283 11.8821 14.0061 11.8821Z" fill="#D40512"/>
<path d="M11.2409 10.6971C11.0187 10.6971 10.8358 10.5142 10.8358 10.292V8.56258C10.8358 8.38833 10.949 8.2315 11.1102 8.17923L13.9984 7.22521C14.0942 7.19471 14.1944 7.19908 14.2859 7.23829L17.0521 8.42753C17.2568 8.51465 17.3527 8.75425 17.2655 8.95899C17.1784 9.16374 16.9388 9.25957 16.7341 9.17245L14.1073 8.04418L11.6417 8.85879V10.2963C11.646 10.5142 11.4631 10.6971 11.2409 10.6971Z" fill="#D40512"/>
<path d="M14.0048 10.1533C13.9525 10.1533 13.8959 10.1446 13.8436 10.1229L11.0774 8.93361C10.8726 8.84648 10.7768 8.60689 10.8639 8.40214C10.9511 8.1974 11.1906 8.10157 11.3954 8.18869L14.1616 9.37793C14.3663 9.46506 14.4622 9.70465 14.375 9.9094C14.3097 10.0619 14.1616 10.1533 14.0048 10.1533Z" fill="#D40512"/>
</svg>
