<svg width="33" height="33" viewBox="0 0 33 33" fill="none" xmlns="http://www.w3.org/2000/svg">
<g id="Credit Card">
<path id="Vector" d="M30.3885 9.35646V11.1298H2.38846V9.35646C2.38671 9.04192 2.44714 8.73013 2.5663 8.43903C2.68545 8.14792 2.86097 7.88324 3.08277 7.6602C3.30457 7.43717 3.56827 7.26017 3.8587 7.1394C4.14914 7.01863 4.46058 6.95645 4.77513 6.95646H27.9885C28.3041 6.95469 28.617 7.01556 28.909 7.13555C29.201 7.25553 29.4663 7.43225 29.6895 7.65546C29.9127 7.87867 30.0894 8.14395 30.2094 8.43593C30.3294 8.72791 30.3902 9.04079 30.3885 9.35646Z" stroke="#8331A7" stroke-width="2" stroke-linecap="round" stroke-linejoin="round"/>
<path id="Vector_2" d="M30.3884 16.1698V24.3298C30.3884 24.9628 30.137 25.5698 29.6894 26.0174C29.2418 26.465 28.6347 26.7165 28.0018 26.7165H4.77509C4.14211 26.7165 3.53505 26.465 3.08747 26.0174C2.63988 25.5698 2.38843 24.9628 2.38843 24.3298V16.1698H30.3884Z" stroke="#8331A7" stroke-width="2" stroke-linecap="round" stroke-linejoin="round"/>
<path id="Vector_3" d="M30.3884 11.1298H2.38843V16.1698H30.3884V11.1298Z" stroke="#8331A7" stroke-width="2" stroke-linecap="round" stroke-linejoin="round"/>
<path id="Vector_4" d="M9.38843 19.983H6.54843C6.29806 19.983 6.09509 20.186 6.09509 20.4364V23.0497C6.09509 23.3001 6.29806 23.503 6.54843 23.503H9.38843C9.6388 23.503 9.84176 23.3001 9.84176 23.0497V20.4364C9.84176 20.186 9.6388 19.983 9.38843 19.983Z" stroke="#8331A7" stroke-width="2" stroke-linecap="round" stroke-linejoin="round"/>
<path id="Vector_5" d="M15.9351 19.983H13.0951C12.8447 19.983 12.6417 20.186 12.6417 20.4364V23.0497C12.6417 23.3001 12.8447 23.503 13.0951 23.503H15.9351C16.1854 23.503 16.3884 23.3001 16.3884 23.0497V20.4364C16.3884 20.186 16.1854 19.983 15.9351 19.983Z" stroke="#8331A7" stroke-width="2" stroke-linecap="round" stroke-linejoin="round"/>
</g>
</svg>
