<svg xmlns="http://www.w3.org/2000/svg" width="8.513" height="15.024" viewBox="0 0 8.513 15.024">
    <path id="Path_47418" data-name="Path 47418"
        d="M-726.147-96.02a1.965,1.965,0,0,1-.866-.368c-.068-.056-.135-.113-.2-.175q-1.32-1.325-2.638-2.653a1.1,1.1,0,0,1-.289-1.173,1.1,1.1,0,0,1,.92-.783,1.351,1.351,0,0,1,.234-.013h2.455v-.191q0-4.511,0-9.022a.593.593,0,0,1,.334-.587.584.584,0,0,1,.838.487c0,.034,0,.068,0,.1q0,4.577,0,9.154a1.171,1.171,0,0,1-1.006,1.216,1.532,1.532,0,0,1-.248.013h-2.355a1.189,1.189,0,0,0,.076.1q1.251,1.26,2.5,2.518a.581.581,0,0,0,.851.037c.069-.062.132-.131.2-.2l2.442-2.391-.037-.064c-.186,0-.373,0-.559,0a.583.583,0,0,1-.54-.774.526.526,0,0,1,.471-.387,4.267,4.267,0,0,1,.95.021,1.133,1.133,0,0,1,.708,1.781,1.786,1.786,0,0,1-.183.209q-1.276,1.286-2.554,2.57a1.783,1.783,0,0,1-1.042.55.227.227,0,0,0-.053.022Z"
        transform="translate(730.2 111.044)" fill="#7E3996" />
</svg>
