<svg width="21" height="21" viewBox="0 0 21 21" fill="none" xmlns="http://www.w3.org/2000/svg">
<path d="M9.80554 4.01624H8.41665C4.94443 4.01624 3.55554 5.40512 3.55554 8.87735V13.044C3.55554 16.5162 4.94443 17.9051 8.41665 17.9051H12.5833C16.0555 17.9051 17.4444 16.5162 17.4444 13.044V11.6551" stroke="#D40512" stroke-width="1.5" stroke-linecap="round" stroke-linejoin="round"/>
<path d="M13.3056 4.7246L7.83333 10.1968C7.625 10.4052 7.41666 10.8149 7.375 11.1135L7.07639 13.2038C6.96528 13.9607 7.5 14.4885 8.25694 14.3843L10.3472 14.0857C10.6389 14.044 11.0486 13.8357 11.2639 13.6274L16.7361 8.15515C17.6806 7.21071 18.125 6.11348 16.7361 4.7246C15.3472 3.33571 14.25 3.78015 13.3056 4.7246Z" stroke="#D40512" stroke-width="1.5" stroke-miterlimit="10" stroke-linecap="round" stroke-linejoin="round"/>
<path d="M12.5208 5.50928C12.986 7.169 14.2846 8.46761 15.9513 8.93983" stroke="#D40512" stroke-width="1.5" stroke-miterlimit="10" stroke-linecap="round" stroke-linejoin="round"/>
</svg>
