<svg width="30" height="30" viewBox="0 0 30 30" fill="none" xmlns="http://www.w3.org/2000/svg">
    <rect width="30" height="30" rx="4" fill="white" />
    <g clip-path="url(#clip0_255_810)">
        <rect x="3" y="3" width="24" height="24" rx="4" fill="white" />
        <path
            d="M24.63 21.135C23.8191 17.4857 21.8642 14.1907 19.05 11.73C19.4637 11.5038 19.7959 11.1533 19.9997 10.7281C20.2035 10.3029 20.2685 9.82441 20.1856 9.36023C20.1028 8.89604 19.8761 8.46963 19.5378 8.14122C19.1994 7.81281 18.7664 7.599 18.3 7.52999L19.5 3.98999C19.5372 3.8772 19.5471 3.75719 19.5288 3.63984C19.5106 3.52249 19.4647 3.41115 19.395 3.31499C19.3224 3.21274 19.2253 3.13034 19.1126 3.07531C19 3.02028 18.8753 2.99438 18.75 2.99999H11.25C11.131 3.00054 11.0139 3.02939 10.9082 3.08416C10.8026 3.13893 10.7115 3.21805 10.6425 3.31499C10.5728 3.41115 10.5269 3.52249 10.5087 3.63984C10.4904 3.75719 10.5003 3.8772 10.5375 3.98999L11.7225 7.49999C11.2561 7.569 10.8231 7.78281 10.4847 8.11122C10.1464 8.43963 9.91974 8.86604 9.83685 9.33023C9.75396 9.79441 9.819 10.2729 10.0228 10.6981C10.2265 11.1233 10.5588 11.4738 10.9725 11.7C8.13903 14.1682 6.17258 17.4806 5.3625 21.15C5.28803 21.4925 5.25031 21.842 5.25 22.1925C5.25 23.4675 5.7565 24.6903 6.65808 25.5919C7.55967 26.4935 8.78247 27 10.0575 27H19.9425C21.2175 27 22.4403 26.4935 23.3419 25.5919C24.2435 24.6903 24.75 23.4675 24.75 22.1925C24.75 21.8366 24.7098 21.4818 24.63 21.135ZM17.7075 4.49999L16.71 7.49999H13.29L12.2925 4.49999H17.7075ZM12 8.99999H18C18.1989 8.99999 18.3897 9.079 18.5303 9.21966C18.671 9.36031 18.75 9.55107 18.75 9.74999C18.75 9.9489 18.671 10.1397 18.5303 10.2803C18.3897 10.421 18.1989 10.5 18 10.5H12C11.8011 10.5 11.6103 10.421 11.4697 10.2803C11.329 10.1397 11.25 9.9489 11.25 9.74999C11.25 9.55107 11.329 9.36031 11.4697 9.21966C11.6103 9.079 11.8011 8.99999 12 8.99999ZM19.9425 25.5H10.0575C9.18091 25.498 8.34078 25.1489 7.72093 24.5291C7.10108 23.9092 6.75198 23.0691 6.75 22.1925C6.75126 21.9403 6.77891 21.6889 6.8325 21.4425C7.67898 17.6554 9.86583 14.3018 12.99 12H17.01C20.1425 14.3117 22.3324 17.6791 23.175 21.48C23.2227 21.7145 23.2478 21.9531 23.25 22.1925C23.248 23.0691 22.8989 23.9092 22.2791 24.5291C21.6592 25.1489 20.8191 25.498 19.9425 25.5Z"
            fill="#D2010C" />
        <path
            d="M15 16.5H16.5C16.6989 16.5 16.8897 16.421 17.0303 16.2803C17.171 16.1397 17.25 15.9489 17.25 15.75C17.25 15.5511 17.171 15.3603 17.0303 15.2197C16.8897 15.079 16.6989 15 16.5 15H15.75C15.75 14.8011 15.671 14.6103 15.5303 14.4697C15.3897 14.329 15.1989 14.25 15 14.25C14.8011 14.25 14.6103 14.329 14.4697 14.4697C14.329 14.6103 14.25 14.8011 14.25 15V15.135C13.754 15.315 13.337 15.6636 13.0719 16.1198C12.8069 16.5761 12.7106 17.111 12.8 17.6311C12.8893 18.1511 13.1586 18.6232 13.5608 18.9649C13.9629 19.3065 14.4723 19.4959 15 19.5C15.1989 19.5 15.3897 19.579 15.5303 19.7197C15.671 19.8603 15.75 20.0511 15.75 20.25C15.75 20.4489 15.671 20.6397 15.5303 20.7803C15.3897 20.921 15.1989 21 15 21H13.5C13.3011 21 13.1103 21.079 12.9697 21.2197C12.829 21.3603 12.75 21.5511 12.75 21.75C12.75 21.9489 12.829 22.1397 12.9697 22.2803C13.1103 22.421 13.3011 22.5 13.5 22.5H14.25C14.25 22.6989 14.329 22.8897 14.4697 23.0303C14.6103 23.171 14.8011 23.25 15 23.25C15.1989 23.25 15.3897 23.171 15.5303 23.0303C15.671 22.8897 15.75 22.6989 15.75 22.5V22.365C16.246 22.185 16.663 21.8364 16.9281 21.3802C17.1931 20.9239 17.2894 20.389 17.2 19.8689C17.1107 19.3489 16.8414 18.8768 16.4392 18.5351C16.0371 18.1935 15.5277 18.0041 15 18C14.8011 18 14.6103 17.921 14.4697 17.7803C14.329 17.6397 14.25 17.4489 14.25 17.25C14.25 17.0511 14.329 16.8603 14.4697 16.7197C14.6103 16.579 14.8011 16.5 15 16.5Z"
            fill="#D2010C" />
    </g>
    <defs>
        <clipPath id="clip0_255_810">
            <rect x="3" y="3" width="24" height="24" rx="4" fill="white" />
        </clipPath>
    </defs>
</svg>
