<svg width="25" height="30" viewBox="0 0 25 30" fill="none" xmlns="http://www.w3.org/2000/svg">
<g id="Group">
<path id="Vector" d="M16.4258 2.16968V4.16968C16.4258 6.05501 16.4258 6.99768 17.0124 7.58301C17.5964 8.16968 18.5391 8.16968 20.4258 8.16968H22.4258" stroke="#8331A7" stroke-width="2" stroke-linecap="round" stroke-linejoin="round"/>
<path id="Vector_2" d="M7.09249 13.5031H17.7592M7.09249 17.5031H17.7592M7.09249 21.5031H12.6525M1.75916 20.1697V9.50305C1.75916 5.73239 1.75916 3.84572 2.93116 2.67505C4.10182 1.50305 5.98849 1.50305 9.75915 1.50305H15.3218C15.8658 1.50305 16.1392 1.50305 16.3845 1.60439C16.6285 1.70572 16.8218 1.89772 17.2072 2.28439L22.3112 7.38839C22.6978 7.77505 22.8898 7.96705 22.9912 8.21239C23.0925 8.45639 23.0925 8.72972 23.0925 9.27372V20.1697C23.0925 23.9404 23.0925 25.8271 21.9205 26.9977C20.7498 28.1697 18.8632 28.1697 15.0925 28.1697H9.75915C5.98849 28.1697 4.10182 28.1697 2.93116 26.9977C1.75916 25.8271 1.75916 23.9404 1.75916 20.1697Z" stroke="#8331A7" stroke-width="2" stroke-linecap="round" stroke-linejoin="round"/>
</g>
</svg>
