<svg width="14" height="13" viewBox="0 0 14 13" fill="none" xmlns="http://www.w3.org/2000/svg">
<g id="elements">
<path id="Icon" fill-rule="evenodd" clip-rule="evenodd" d="M3.37142 1.05333e-06C3.38298 1.5699e-06 3.39457 2.08648e-06 3.40621 2.08648e-06L11.1286 1.05333e-06C11.6423 -2.25501e-05 12.0784 -4.25776e-05 12.4224 0.0468691C12.7866 0.0965232 13.1349 0.208609 13.4014 0.502065C13.6704 0.798092 13.744 1.15484 13.7496 1.51952C13.7549 1.86009 13.7005 2.28315 13.637 2.77641L13.6324 2.81233C13.6099 2.98688 13.5762 3.15571 13.506 3.32474C13.4347 3.49635 13.3365 3.64251 13.2143 3.78777C12.5611 4.56369 11.347 5.96593 9.63762 7.24293C9.60997 7.26358 9.57508 7.31254 9.56843 7.386C9.40235 9.22129 9.25625 10.1923 9.15085 10.7549C9.03687 11.3632 8.57285 11.7842 8.17276 12.0741C7.96339 12.2259 7.74115 12.3625 7.54321 12.4829C7.52734 12.4926 7.51166 12.5021 7.49618 12.5115C7.31127 12.624 7.15407 12.7196 7.02267 12.8125C6.66233 13.0673 6.24661 13.0494 5.92885 12.8643C5.62898 12.6896 5.41797 12.371 5.37531 12.0107C5.28167 11.2197 5.11191 9.67129 4.92451 7.38172C4.91849 7.30828 4.90702 7.28697 4.90607 7.2852C4.90541 7.28396 4.90372 7.28086 4.89812 7.2747C4.89186 7.26782 4.87935 7.25563 4.85557 7.23785C3.14968 5.96245 1.93788 4.56267 1.28567 3.78774C1.16387 3.64302 1.06281 3.50034 0.990748 3.32682C0.920207 3.15694 0.890128 2.98726 0.867626 2.81233C0.866081 2.80031 0.86454 2.78834 0.863004 2.7764C0.799526 2.28315 0.745082 1.86009 0.750354 1.51952C0.755998 1.15484 0.829613 0.798091 1.09854 0.502065C1.36512 0.208609 1.71335 0.0965231 2.07753 0.0468691C2.42161 -4.25776e-05 2.85771 -2.25501e-05 3.37142 1.05333e-06ZM2.21263 1.0377C1.95656 1.07261 1.87942 1.12966 1.83871 1.17447C1.80034 1.21672 1.75401 1.2911 1.75023 1.53499C1.74621 1.79475 1.79008 2.14541 1.85945 2.68475C1.87873 2.83462 1.89562 2.89836 1.91429 2.94331C1.93144 2.98461 1.96182 3.03814 2.05076 3.14382C2.68961 3.90288 3.84231 5.2317 5.45436 6.43695C5.58387 6.53378 5.7027 6.65365 5.78866 6.81507C5.87336 6.97411 5.90803 7.13957 5.92117 7.30015C6.10755 9.57721 6.27609 11.1136 6.36837 11.8931C6.37119 11.9168 6.37984 11.9403 6.39316 11.9607C6.40679 11.9816 6.42192 11.9942 6.43222 12.0002C6.43353 12.001 6.43469 12.0016 6.43568 12.0021C6.43805 12.0008 6.44125 11.9989 6.44532 11.996C6.60673 11.8819 6.79407 11.768 6.97089 11.6606C6.98849 11.6499 7.00599 11.6393 7.02335 11.6287C7.22255 11.5075 7.41307 11.3897 7.58601 11.2644C7.95055 11.0002 8.12936 10.7767 8.16795 10.5707C8.26561 10.0495 8.40815 9.11205 8.5725 7.29587C8.60261 6.96311 8.76598 6.64587 9.03912 6.44181C10.6545 5.23502 11.8095 3.90381 12.4492 3.1438C12.5268 3.05163 12.5613 2.9922 12.5825 2.94107C12.6049 2.88735 12.6236 2.81626 12.6405 2.68475C12.7099 2.14541 12.7538 1.79475 12.7497 1.53499C12.746 1.2911 12.6996 1.21672 12.6613 1.17447C12.6206 1.12966 12.5434 1.07261 12.2874 1.0377C12.0189 1.0011 11.6518 1 11.0938 1H3.40621C2.84818 1 2.48107 1.0011 2.21263 1.0377ZM6.43044 12.0044C6.43046 12.0044 6.43079 12.0042 6.43141 12.0041Z" fill="#7E3996"/>
</g>
</svg>
