<svg width="20" height="20" viewBox="0 0 20 20" fill="none" xmlns="http://www.w3.org/2000/svg">
<g id="Group">
<path id="Vector" d="M4.99988 7H10.9999M4.99988 10.9998H10.9999M15.0002 12.0002L13.7599 14.2998L10.9999 14.6699L13 16.4699L12.5296 19L15.0002 17.8L17.4698 19L16.9999 16.4704L19 14.6704L16.24 14.2998L15.0002 12.0002Z" stroke="#8331A7" stroke-linecap="round" stroke-linejoin="round"/>
<path id="Vector_2" d="M7.99984 19H1.99984C1.73467 19 1.48035 18.8947 1.29285 18.7072C1.10534 18.5196 1 18.2653 1 18.0002V5.41405C1 5.14884 1.10536 4.89448 1.29289 4.70695L4.70695 1.29289C4.89448 1.10536 5.14884 1 5.41405 1H13.9998C14.1312 0.999937 14.2612 1.02575 14.3826 1.07597C14.504 1.12619 14.6142 1.19983 14.7071 1.29268C14.8 1.38553 14.8737 1.49577 14.924 1.61711C14.9743 1.73844 15.0002 1.8685 15.0002 1.99984V7.99984" stroke="#8331A7" stroke-width="1.5" stroke-linecap="round" stroke-linejoin="round"/>
</g>
</svg>
