<svg width="134" height="55" viewBox="0 0 134 55" fill="none" xmlns="http://www.w3.org/2000/svg">
<g id="Group 1000008004">
<circle id="Ellipse 456" opacity="0.1" cx="6" cy="26" r="6" fill="#7E3996"/>
<path id="Subtract" opacity="0.2" fill-rule="evenodd" clip-rule="evenodd" d="M12.5277 0C12.181 1.94766 12 3.9527 12 6C12 24.7777 27.2223 40 46 40C64.7777 40 80 24.7777 80 6C80 3.9527 79.819 1.94766 79.4723 0H12.5277Z" fill="#49A0BF"/>
<path id="Subtract_2" opacity="0.2" fill-rule="evenodd" clip-rule="evenodd" d="M56.2459 0H127.5C129.5 0.666668 133.5 2.8 133.5 6V39.2112C125.337 48.868 113.135 55 99.5 55C74.9233 55 55 35.0767 55 10.5C55 6.88298 55.4315 3.36676 56.2459 0Z" fill="#7E3996" fill-opacity="0.39"/>
</g>
</svg>
