<svg width="24" height="24" viewBox="0 0 24 24" fill="none" xmlns="http://www.w3.org/2000/svg">
<g id="home-2">
<path id="Subtract" fill-rule="evenodd" clip-rule="evenodd" d="M3.78023 6.82969C2.78023 7.60969 1.99023 9.20969 1.99023 10.4697V17.3697C1.99023 19.9197 4.06023 21.9997 6.61023 21.9997H17.3902C19.9402 21.9997 22.0102 19.9297 22.0102 17.3797V10.5997C22.0102 9.24969 21.1402 7.58969 20.0402 6.81969L14.2802 2.78969C12.7102 1.68969 10.3002 1.74969 8.79023 2.91969L3.78023 6.82969ZM9.71078 4.10401L4.7031 8.0122L4.70278 8.01245C4.42344 8.23033 4.10512 8.62624 3.85596 9.13228C3.60639 9.63915 3.49023 10.1264 3.49023 10.4697V17.3697C3.49023 19.0955 4.89288 20.4997 6.61023 20.4997H17.3902C19.1118 20.4997 20.5102 19.1013 20.5102 17.3797V10.5997C20.5102 10.2225 20.3804 9.70801 20.108 9.18638C19.8358 8.66488 19.4879 8.26417 19.1803 8.04874C19.1803 8.04873 19.1803 8.04871 19.1803 8.04869C19.1802 8.04864 19.1801 8.04859 19.18 8.04854L13.4203 4.01874L13.4195 4.01817C12.3886 3.29589 10.7014 3.338 9.71078 4.10401Z" fill="#8331A7"/>
<path id="Vector" opacity="0.7" d="M12 18.75C11.59 18.75 11.25 18.41 11.25 18V15C11.25 14.59 11.59 14.25 12 14.25C12.41 14.25 12.75 14.59 12.75 15V18C12.75 18.41 12.41 18.75 12 18.75Z" fill="#8331A7"/>
</g>
</svg>
