<svg xmlns="http://www.w3.org/2000/svg" width="14.25" height="14.332" viewBox="0 0 14.25 14.332">
    <g id="svgexport-18_3_" transform="translate(0.15 0.242)">
        <path id="Path_2708"
            d="M16.911,7.134a4.638,4.638,0,0,0-2.1-3.405A4.6,4.6,0,0,0,7.964,9.045L3.61,13.4A2.062,2.062,0,0,0,3,14.865v1.686a.387.387,0,0,0,.387.387H5.076a2.088,2.088,0,0,0,1.467-.608l.1-.1a.387.387,0,0,0,0-.547.457.457,0,0,1,.466-.755,1.138,1.138,0,0,0,1.148-.313l.346-.345a1.131,1.131,0,0,0,.313-1.15.457.457,0,0,1,.756-.466.4.4,0,0,0,.547,0l.674-.674A4.6,4.6,0,0,0,16.91,7.134ZM15.04,10.317a3.827,3.827,0,0,1-4.1.853.389.389,0,0,0-.414.087l-.618.618a1.257,1.257,0,0,0-1.422.23,1.225,1.225,0,0,0-.3,1.256.38.38,0,0,1-.125.359l-.345.347a.379.379,0,0,1-.359.124A1.231,1.231,0,0,0,5.862,15.9a1.305,1.305,0,0,1-.785.265h-1.3v-1.3a1.292,1.292,0,0,1,.379-.918L8.685,9.42a.387.387,0,0,0,.087-.415,3.843,3.843,0,0,1,1.377-4.543,3.8,3.8,0,0,1,4.242-.085A3.863,3.863,0,0,1,16.14,7.214a3.814,3.814,0,0,1-1.1,3.1ZM13.107,7.609a.774.774,0,1,1-.774-.774A.774.774,0,0,1,13.107,7.609Z"
            transform="translate(-3.004 -2.998)" stroke="#000" stroke-width="0.3" />
    </g>
</svg>
