<svg width="27" height="30" viewBox="0 0 27 30" fill="none" xmlns="http://www.w3.org/2000/svg">
<g id="Group">
<path id="Vector" d="M18.8333 4.33618C21.7333 4.35218 23.304 4.48152 24.328 5.50552C25.5 6.67752 25.5 8.56285 25.5 12.3335V20.3335C25.5 24.1055 25.5 25.9908 24.328 27.1628C23.1573 28.3335 21.2707 28.3335 17.5 28.3335H9.5C5.72933 28.3335 3.84267 28.3335 2.672 27.1628C1.5 25.9895 1.5 24.1055 1.5 20.3335V12.3335C1.5 8.56285 1.5 6.67752 2.672 5.50552C3.696 4.48152 5.26667 4.35218 8.16667 4.33618" stroke="#8331A7" stroke-width="2"/>
<path id="Vector_2" d="M11.5 17.6667H20.1667M6.83337 17.6667H7.50004M6.83337 13H7.50004M6.83337 22.3333H7.50004M11.5 13H20.1667M11.5 22.3333H20.1667" stroke="#8331A7" stroke-width="2" stroke-linecap="round"/>
<path id="Vector_3" d="M8.16663 3.66675C8.16663 3.13631 8.37734 2.62761 8.75241 2.25253C9.12748 1.87746 9.63619 1.66675 10.1666 1.66675H16.8333C17.3637 1.66675 17.8724 1.87746 18.2475 2.25253C18.6226 2.62761 18.8333 3.13631 18.8333 3.66675V5.00008C18.8333 5.53051 18.6226 6.03922 18.2475 6.41429C17.8724 6.78937 17.3637 7.00008 16.8333 7.00008H10.1666C9.63619 7.00008 9.12748 6.78937 8.75241 6.41429C8.37734 6.03922 8.16663 5.53051 8.16663 5.00008V3.66675Z" stroke="#8331A7" stroke-width="2"/>
</g>
</svg>
