<svg xmlns="http://www.w3.org/2000/svg" width="17.731" height="24" viewBox="0 0 17.731 24">
    <g id="svgexport-17_8_" transform="translate(-48.08 0)">
        <path id="Path_43352"
            d="M56.946,0A8.876,8.876,0,0,0,48.08,8.866a10.229,10.229,0,0,0,.752,3.413A14.3,14.3,0,0,0,49.857,14.2l6.079,9.21a1.156,1.156,0,0,0,2.02,0L64.035,14.2a14.238,14.238,0,0,0,1.025-1.917,10.226,10.226,0,0,0,.752-3.413A8.876,8.876,0,0,0,56.946,0ZM64.1,11.874a13.1,13.1,0,0,1-.934,1.747l-6.079,9.211c-.12.182-.158.182-.278,0l-6.079-9.211a13.106,13.106,0,0,1-.934-1.748,9.285,9.285,0,0,1-.671-3.008,7.823,7.823,0,1,1,15.645,0,9.292,9.292,0,0,1-.67,3.009Z" />
        <path id="Path_43353"
            d="M116.774,64.008a4.694,4.694,0,1,0,4.694,4.694A4.7,4.7,0,0,0,116.774,64.008Zm0,8.344a3.651,3.651,0,1,1,3.651-3.651A3.655,3.655,0,0,1,116.774,72.352Z"
            transform="translate(-59.828 -59.835)" />
    </g>
</svg>
