<svg width="22" height="22" viewBox="0 0 22 22" fill="none" xmlns="http://www.w3.org/2000/svg">
    <g id="vuesax/linear/map">
        <g id="map">
            <path id="Vector"
                d="M2.17273 7.16363V16.0091C2.17273 17.7364 3.4 18.4454 4.89091 17.5909L7.02728 16.3727C7.49091 16.1091 8.26364 16.0818 8.74546 16.3273L13.5182 18.7182C14 18.9545 14.7727 18.9364 15.2364 18.6727L19.1727 16.4182C19.6727 16.1273 20.0909 15.4182 20.0909 14.8364V5.9909C20.0909 4.26363 18.8636 3.55453 17.3727 4.40908L15.2364 5.62726C14.7727 5.8909 14 5.91817 13.5182 5.67272L8.74546 3.2909C8.26364 3.05453 7.49091 3.07272 7.02728 3.33635L3.09091 5.5909C2.58182 5.88181 2.17273 6.5909 2.17273 7.16363Z"
                stroke="white" stroke-width="1.5" stroke-linecap="round" stroke-linejoin="round" />
            <path id="Vector_2" d="M7.87273 3.72729V15.5455" stroke="white" stroke-width="1.5"
                stroke-linecap="round" stroke-linejoin="round" />
            <path id="Vector_3" d="M14.3909 6.10913V18.2728" stroke="white" stroke-width="1.5"
                stroke-linecap="round" stroke-linejoin="round" />
        </g>
    </g>
</svg>
