<svg width="350" height="313" viewBox="0 0 350 313" fill="none" xmlns="http://www.w3.org/2000/svg">
    <path fill-rule="evenodd" clip-rule="evenodd"
            d="M165.242 23C132.59 23 102.579 34.3184 78.8824 53.2551H40.5842C35.6084 53.2551 31.5373 57.3396 31.5373 62.3317C31.5373 67.3238 35.6084 71.4082 40.5842 71.4082H60.0752H65.7868C70.7626 71.4082 74.8336 75.4927 74.8336 80.4847C74.8336 82.9778 73.8143 85.253 72.1739 86.8928C70.5394 88.5387 68.2717 89.5613 65.7868 89.5613H53.6013H46.8729H14.0468C9.07107 89.5613 5 93.6457 5 98.6378C5 103.63 9.07107 107.714 14.0468 107.714H37.5468C30.4529 124.441 26.5236 142.845 26.5236 162.174C26.5236 169.187 27.0423 176.079 28.0374 182.814C28.4536 185.627 28.9542 188.417 29.5392 191.176C46.6075 188.556 64.7132 186.45 83.6151 184.913L85.0384 186.214L86.3774 184.696C109.085 182.923 132.92 181.979 157.503 181.979C209.734 181.979 258.611 186.239 300.401 193.645C302.011 186.638 303.097 179.431 303.61 172.061C303.845 168.793 303.959 165.496 303.959 162.174C303.959 85.3074 241.856 23 165.242 23Z"
            fill="#F1F2F7" />
    <mask id="mask0_1389_38792" style="mask-type:luminance" maskUnits="userSpaceOnUse" x="29"
            y="182" width="300" height="119">
        <path fill-rule="evenodd" clip-rule="evenodd"
                d="M329 182.178V300.794H179.175H29.3509V182.178H329Z" fill="white" />
    </mask>
    <g mask="url(#mask0_1389_38792)">
        <path fill-rule="evenodd" clip-rule="evenodd"
                d="M329 228.039C329 232.999 324.93 237.058 319.955 237.058H262.184C259.699 237.058 257.433 238.074 255.799 239.71C254.159 241.339 253.139 243.6 253.139 246.077C253.139 251.038 257.209 255.096 262.184 255.096H272.917C275.401 255.096 277.669 256.113 279.303 257.748C280.943 259.378 281.962 261.638 281.962 264.116C281.962 269.076 277.892 273.135 272.917 273.135H248.237C225.052 290.5 196.243 300.794 165.021 300.794C98.3374 300.794 42.6465 253.864 29.3509 191.318C46.4151 188.714 64.5165 186.622 83.4138 185.095L84.8362 186.387L86.1754 184.878C108.877 183.116 132.707 182.178 157.284 182.178C209.502 182.178 258.367 186.412 300.147 193.771C298.116 202.538 295.245 210.98 291.628 219.019H319.955C322.446 219.019 324.701 220.035 326.341 221.671C327.981 223.3 329 225.561 329 228.039Z"
                fill="#E8EBF2" />
    </g>
    <path d="M135.589 106.782C135.467 107.032 135.365 107.29 135.284 107.556L111.457 114.737L107.045 110.604L99.9368 116.446L107.036 124.523C107.609 125.175 108.379 125.624 109.229 125.802C110.079 125.98 110.964 125.877 111.751 125.509L137.397 113.516C138.289 114.107 139.34 114.412 140.409 114.391C141.479 114.37 142.516 114.024 143.384 113.399C144.252 112.774 144.909 111.9 145.268 110.892C145.627 109.884 145.671 108.791 145.393 107.758C145.116 106.725 144.53 105.801 143.715 105.109C142.899 104.417 141.893 103.989 140.828 103.883C139.764 103.777 138.692 103.998 137.756 104.516C136.82 105.034 136.064 105.824 135.589 106.782Z"
            fill="#FFB6B6" />
    <path d="M110.666 115.028L101.9 122.323C101.65 122.53 101.359 122.682 101.046 122.767C100.733 122.851 100.405 122.868 100.085 122.815C99.7649 122.761 99.46 122.64 99.1912 122.458C98.9223 122.276 98.6958 122.039 98.527 121.762L92.6132 112.051C91.5594 110.769 91.0568 109.121 91.2156 107.469C91.3745 105.817 92.1818 104.295 93.4606 103.237C94.7395 102.179 96.3856 101.671 98.0382 101.825C99.6908 101.978 101.215 102.781 102.277 104.056L110.727 111.609C110.969 111.825 111.161 112.091 111.291 112.389C111.421 112.686 111.485 113.008 111.479 113.332C111.473 113.657 111.398 113.976 111.257 114.269C111.117 114.561 110.915 114.82 110.666 115.028Z"
            fill="#3F3D56" />
    <path d="M134.206 236.49L138.021 234.059C138.196 231.925 138.251 229.783 138.185 227.643L136.206 228.149L138.16 226.904C138.052 224.259 137.813 222.514 137.813 222.514C137.813 222.514 130.098 227.525 125.178 234.317L126.017 240.061L124.016 236.044C123.505 236.863 123.045 237.714 122.64 238.591C118.586 247.447 118.192 255.95 121.76 257.583C125.328 259.216 131.506 253.361 135.56 244.505C136.783 241.657 137.562 238.638 137.87 235.554L134.206 236.49Z"
            fill="#E6E6E6" />
    <path d="M142.043 245.038L146.566 244.929C147.819 243.193 148.973 241.388 150.023 239.522L148.067 238.931L150.383 238.876C151.658 236.555 152.355 234.938 152.355 234.938C152.355 234.938 143.161 235.24 135.439 238.511L133.188 243.862L133.551 239.389C132.69 239.826 131.856 240.316 131.056 240.858C123.009 246.343 118.276 253.419 120.486 256.661C122.696 259.903 131.012 258.085 139.06 252.599C141.579 250.793 143.806 248.611 145.664 246.13L142.043 245.038Z"
            fill="#E6E6E6" />
    <path d="M115.313 253.024L120.251 253.024L122.103 233.819L115.313 233.98L115.313 253.024Z"
            fill="#FFB6B6" />
    <path d="M114.054 251.412L123.778 251.412C125.421 251.412 126.998 252.065 128.16 253.227C129.322 254.389 129.975 255.965 129.975 257.609V257.81L114.054 257.81L114.054 251.412Z"
            fill="#2F2E41" />
    <path d="M57.0621 238.772L60.3006 242.499L76.2177 231.781L71.438 226.28L57.0621 238.772Z"
            fill="#FFB6B6" />
    <path d="M57.4529 236.763L63.8307 244.103C64.9085 245.344 65.4496 246.962 65.3345 248.602C65.2194 250.241 64.4579 251.768 63.2174 252.846L63.0654 252.978L52.6232 240.96L57.4529 236.763Z"
            fill="#2F2E41" />
    <path d="M31.4794 258.417H166.113C166.24 258.417 166.362 258.366 166.452 258.276C166.542 258.186 166.593 258.064 166.593 257.937C166.593 257.81 166.542 257.688 166.452 257.598C166.362 257.508 166.24 257.458 166.113 257.458H31.4794C31.4163 257.457 31.3538 257.47 31.2955 257.494C31.2371 257.518 31.1841 257.553 31.1394 257.598C31.0947 257.642 31.0593 257.695 31.0351 257.753C31.0109 257.812 30.9985 257.874 30.9985 257.937C30.9985 258 31.0109 258.063 31.0351 258.121C31.0593 258.179 31.0947 258.232 31.1394 258.277C31.1841 258.321 31.2371 258.357 31.2955 258.381C31.3538 258.405 31.4163 258.417 31.4794 258.417Z"
            fill="#CACACA" />
    <path d="M104.466 207.817L114.854 246.304H122.909L121.14 204.212L116.47 163.203L99.5084 162.301L104.466 207.817Z"
            fill="#2F2E41" />
    <path d="M86.4393 163.202C86.4393 163.202 85.538 169.061 89.1432 175.37C92.7485 181.679 90.4952 202.86 90.4952 202.86L60.0812 233.416C60.0812 233.416 64.8079 241.616 67.0612 241.166C69.3144 240.715 104.916 211.873 104.916 211.873L116.47 165.005L86.4393 163.202Z"
            fill="#2F2E41" />
    <path d="M103.209 94.9815C108.934 94.9815 113.574 90.341 113.574 84.6165C113.574 78.8921 108.934 74.2515 103.209 74.2515C97.4849 74.2515 92.8444 78.8921 92.8444 84.6165C92.8444 90.341 97.4849 94.9815 103.209 94.9815Z"
            fill="#FFB6B6" />
    <path d="M102.772 100.915C102.772 100.915 90.6895 96.3407 90.6895 97.6927C90.6895 99.0446 78.7782 110.476 81.4821 125.348C84.186 140.219 87.3406 147.43 85.9886 155.541C84.6366 163.653 85.5379 165.456 85.5379 165.456C85.5379 165.456 116.921 168.16 117.371 165.005C117.822 161.85 116.062 157.039 116.062 155.687C116.062 154.335 103.61 104.394 102.772 100.915Z"
            fill="#3F3D56" />
    <path d="M98.5179 90.8447C99.357 90.4011 100.332 90.3096 101.24 90.0338C104.489 89.0472 106.666 85.3739 105.971 82.0499C105.843 81.6236 105.785 81.1791 105.801 80.7341C105.922 79.7496 106.929 79.1144 107.895 78.8888C108.861 78.6632 109.889 78.696 110.812 78.3333C112.238 77.7732 113.185 76.3082 113.39 74.7905C113.537 73.2539 113.195 71.71 112.412 70.3797L112.064 71.3837C111.531 70.9332 111.136 70.3425 110.923 69.6786C110.527 69.7452 110.154 69.9125 109.841 70.1645C109.527 70.4165 109.284 70.7447 109.134 71.1177C108.574 71.4479 108.493 70.0917 107.875 69.8916C107.602 69.8577 107.327 69.9255 107.102 70.0821C105.856 70.6635 104.407 70.1664 103.07 69.8441C100.755 69.2887 98.341 69.2858 96.0242 69.8358C94.485 70.2029 92.9614 70.8422 91.86 71.9784C90.9986 72.9564 90.3368 74.0936 89.912 75.3257C88.7307 78.2987 87.9503 81.5156 88.3403 84.6908C88.6651 87.2892 89.7521 89.7332 91.4643 91.7144C92.3562 92.7421 95.2663 96.3273 96.8619 95.716C98.8668 94.948 96.1555 92.0938 98.5179 90.8447Z"
            fill="#2F2E41" />
    <path opacity="0.2"
            d="M116.101 180.753L104.242 211.846L104.841 212.075L116.7 180.982L116.101 180.753Z"
            fill="black" />
    <path d="M141.701 102.123C140.947 102.124 140.223 102.424 139.69 102.958C139.157 103.491 138.856 104.214 138.856 104.969V136.601C138.856 137.355 139.157 138.078 139.69 138.612C140.223 139.145 140.947 139.445 141.701 139.446H293.155C293.909 139.445 294.632 139.145 295.166 138.612C295.699 138.078 295.999 137.355 296 136.601V104.969C295.999 104.214 295.699 103.491 295.166 102.958C294.632 102.424 293.909 102.124 293.155 102.123L141.701 102.123Z"
            fill="#E6E6E6" />
    <path d="M142.724 104.342C142.287 104.342 141.867 104.516 141.558 104.826C141.249 105.135 141.075 105.554 141.074 105.992V135.578C141.075 136.015 141.249 136.434 141.558 136.744C141.867 137.053 142.287 137.227 142.724 137.227H292.131C292.569 137.227 292.988 137.053 293.297 136.744C293.606 136.434 293.78 136.015 293.781 135.578V105.992C293.78 105.554 293.606 105.135 293.297 104.826C292.988 104.516 292.569 104.343 292.131 104.342H142.724Z"
            fill="white" />
    <path d="M282.751 129.114C283.46 129.113 284.14 128.83 284.641 128.328C285.142 127.826 285.424 127.147 285.425 126.437C285.426 125.728 285.146 125.048 284.646 124.544C284.146 124.041 283.467 123.757 282.758 123.753C282.756 123.753 282.753 123.753 282.751 123.753H156.379C155.67 123.756 154.991 124.04 154.49 124.542C153.99 125.045 153.709 125.725 153.709 126.434C153.709 127.143 153.99 127.823 154.49 128.325C154.991 128.828 155.67 129.112 156.379 129.114H282.751Z"
            fill="#E6E6E6" />
    <path d="M210.756 117.469C211.109 117.469 211.458 117.4 211.783 117.265C212.109 117.131 212.405 116.934 212.654 116.685C212.903 116.436 213.101 116.14 213.236 115.815C213.371 115.489 213.44 115.14 213.44 114.788C213.44 114.436 213.371 114.087 213.236 113.761C213.101 113.436 212.903 113.14 212.654 112.891C212.405 112.642 212.109 112.445 211.783 112.31C211.458 112.176 211.109 112.107 210.756 112.107H156.378C156.026 112.107 155.677 112.176 155.352 112.31C155.026 112.445 154.73 112.642 154.481 112.891C154.231 113.14 154.034 113.436 153.899 113.761C153.764 114.087 153.694 114.436 153.694 114.788C153.694 115.14 153.764 115.489 153.899 115.815C154.034 116.14 154.231 116.436 154.481 116.685C154.73 116.934 155.026 117.131 155.352 117.265C155.677 117.4 156.026 117.469 156.378 117.469H210.756Z"
            fill="url(#paint0_linear_1389_38792)" />
    <path d="M163.837 163.156C163.303 163.157 162.791 163.369 162.414 163.747C162.036 164.124 161.824 164.636 161.823 165.17V187.556C161.824 188.09 162.036 188.601 162.414 188.979C162.791 189.356 163.303 189.569 163.837 189.569H271.018C271.552 189.569 272.064 189.356 272.442 188.979C272.819 188.601 273.032 188.09 273.032 187.556V165.17C273.032 164.636 272.819 164.124 272.442 163.747C272.064 163.369 271.552 163.157 271.018 163.156H163.837Z"
            fill="#E6E6E6" />
    <path d="M164.561 164.727C164.252 164.727 163.955 164.85 163.736 165.069C163.517 165.288 163.394 165.585 163.393 165.894V186.832C163.394 187.141 163.517 187.438 163.736 187.657C163.955 187.876 164.252 187.999 164.561 187.999H270.294C270.604 187.999 270.901 187.876 271.119 187.657C271.338 187.438 271.461 187.141 271.462 186.832V165.894C271.461 165.585 271.338 165.288 271.119 165.069C270.901 164.85 270.604 164.727 270.294 164.727H164.561Z"
            fill="white" />
    <path d="M264.552 182.085C264.989 182.086 265.408 181.895 265.717 181.556C266.026 181.217 266.2 180.756 266.201 180.275C266.201 179.795 266.029 179.334 265.72 178.994C265.412 178.653 264.993 178.462 264.557 178.461C264.555 178.461 264.554 178.461 264.552 178.461H186.895C186.458 178.461 186.04 178.653 185.732 178.992C185.423 179.332 185.25 179.793 185.25 180.273C185.25 180.753 185.423 181.214 185.732 181.554C186.04 181.893 186.458 182.085 186.895 182.085H264.552Z"
            fill="#E6E6E6" />
    <path d="M225.594 174.016C225.844 174.016 226.091 173.968 226.321 173.873C226.552 173.777 226.761 173.638 226.938 173.461C227.114 173.285 227.254 173.076 227.35 172.846C227.445 172.615 227.494 172.368 227.494 172.119C227.494 171.87 227.445 171.623 227.35 171.392C227.254 171.162 227.114 170.953 226.938 170.777C226.761 170.601 226.552 170.461 226.321 170.366C226.091 170.27 225.844 170.222 225.594 170.222H187.112C186.862 170.222 186.615 170.27 186.385 170.366C186.154 170.461 185.945 170.601 185.769 170.777C185.592 170.953 185.452 171.162 185.357 171.392C185.261 171.623 185.212 171.87 185.212 172.119C185.212 172.368 185.261 172.615 185.357 172.846C185.452 173.076 185.592 173.285 185.769 173.461C185.945 173.638 186.154 173.777 186.385 173.873C186.615 173.968 186.862 174.016 187.112 174.016H225.594Z"
            fill="#E4E4E4" />
    <path d="M163.837 51.9999C163.303 52.0005 162.791 52.2129 162.414 52.5904C162.036 52.9679 161.824 53.4797 161.823 54.0136V76.3991C161.824 76.933 162.036 77.4448 162.414 77.8223C162.791 78.1998 163.303 78.4122 163.837 78.4128H271.018C271.552 78.4122 272.064 78.1998 272.442 77.8223C272.819 77.4448 273.032 76.933 273.032 76.3991V54.0136C273.032 53.4797 272.819 52.9679 272.442 52.5904C272.064 52.2129 271.552 52.0005 271.018 51.9999H163.837Z"
            fill="#E6E6E6" />
    <path d="M164.561 53.5702C164.252 53.5705 163.955 53.6936 163.736 53.9125C163.517 54.1314 163.394 54.4281 163.393 54.7377V75.6751C163.394 75.9847 163.517 76.2815 163.736 76.5003C163.955 76.7192 164.252 76.8423 164.561 76.8426H270.294C270.604 76.8423 270.901 76.7192 271.119 76.5003C271.338 76.2814 271.461 75.9846 271.462 75.6751V54.7377C271.461 54.4282 271.338 54.1314 271.119 53.9125C270.901 53.6936 270.604 53.5705 270.294 53.5702H164.561Z"
            fill="white" />
    <path d="M264.454 70.9287C264.916 70.9291 265.36 70.7387 265.688 70.3993C266.016 70.0599 266.2 69.5994 266.201 69.1189C266.201 68.6384 266.018 68.1773 265.691 67.837C265.365 67.4967 264.921 67.305 264.458 67.3041C264.457 67.3041 264.455 67.3041 264.454 67.3041H182.16C181.697 67.3048 181.254 67.496 180.927 67.8358C180.6 68.1756 180.417 68.6362 180.417 69.1164C180.417 69.5966 180.6 70.0572 180.927 70.397C181.254 70.7368 181.697 70.928 182.16 70.9287H264.454Z"
            fill="#E6E6E6" />
    <path d="M220.762 62.8596C221.011 62.86 221.258 62.8112 221.489 62.716C221.719 62.6208 221.929 62.4812 222.105 62.305C222.281 62.1288 222.421 61.9195 222.517 61.6892C222.612 61.4588 222.662 61.2119 222.662 60.9626C222.662 60.7132 222.612 60.4663 222.517 60.236C222.421 60.0056 222.281 59.7964 222.105 59.6202C221.929 59.444 221.719 59.3043 221.489 59.2092C221.258 59.114 221.011 59.0652 220.762 59.0656H182.279C182.03 59.0652 181.783 59.114 181.552 59.2092C181.322 59.3043 181.112 59.444 180.936 59.6202C180.759 59.7964 180.619 60.0056 180.524 60.236C180.428 60.4663 180.379 60.7132 180.379 60.9626C180.379 61.2119 180.428 61.4588 180.524 61.6892C180.619 61.9195 180.759 62.1288 180.936 62.305C181.112 62.4812 181.322 62.6208 181.552 62.716C181.783 62.8112 182.03 62.86 182.279 62.8596H220.762Z"
            fill="#E4E4E4" />
    <path d="M132.272 124.942C132.072 125.134 131.887 125.342 131.719 125.563L106.878 124.077L104.165 118.674L95.476 121.703L99.35 131.734C99.6629 132.545 100.23 133.232 100.967 133.692C101.704 134.152 102.57 134.362 103.435 134.288L131.645 131.886C132.278 132.749 133.158 133.398 134.169 133.747C135.18 134.097 136.274 134.13 137.304 133.843C138.334 133.557 139.253 132.963 139.938 132.141C140.622 131.319 141.041 130.308 141.137 129.243C141.233 128.178 141.003 127.108 140.476 126.177C139.95 125.246 139.153 124.497 138.19 124.03C137.228 123.563 136.146 123.4 135.089 123.563C134.032 123.726 133.049 124.207 132.272 124.942Z"
            fill="#FFB6B6" />
    <path d="M106.035 124.076L95.2898 127.896C94.984 128.005 94.6585 128.047 94.3352 128.018C94.012 127.99 93.6987 127.892 93.4166 127.731C93.1346 127.571 92.8905 127.352 92.7009 127.088C92.5113 126.825 92.3807 126.524 92.3179 126.205L90.1203 115.05C89.5742 113.483 89.6716 111.763 90.391 110.268C91.1105 108.772 92.3935 107.623 93.9588 107.071C95.5241 106.52 97.2442 106.612 98.742 107.326C100.24 108.041 101.394 109.32 101.95 110.883L107.273 120.889C107.425 121.175 107.514 121.491 107.533 121.815C107.552 122.139 107.501 122.463 107.384 122.766C107.266 123.068 107.085 123.342 106.852 123.568C106.62 123.794 106.341 123.968 106.035 124.076Z"
            fill="#3F3D56" />
    <path d="M142.958 112.257C146.74 112.257 149.805 109.192 149.805 105.411C149.805 101.629 146.74 98.5641 142.958 98.5641C139.177 98.5641 136.112 101.629 136.112 105.411C136.112 109.192 139.177 112.257 142.958 112.257Z"
            fill="url(#paint1_linear_1389_38792)" />
    <path d="M145.853 104.63H143.897V102.674C143.897 102.479 143.82 102.292 143.682 102.155C143.544 102.017 143.358 101.94 143.163 101.94C142.969 101.94 142.782 102.017 142.645 102.155C142.507 102.292 142.43 102.479 142.43 102.674V104.63H140.474C140.279 104.63 140.092 104.707 139.955 104.845C139.817 104.982 139.74 105.169 139.74 105.363C139.74 105.558 139.817 105.744 139.955 105.882C140.092 106.02 140.279 106.097 140.474 106.097H142.43V108.053C142.43 108.248 142.507 108.434 142.645 108.572C142.782 108.709 142.969 108.787 143.163 108.787C143.358 108.787 143.544 108.709 143.682 108.572C143.82 108.434 143.897 108.248 143.897 108.053V106.097H145.853C146.048 106.097 146.234 106.02 146.372 105.882C146.509 105.744 146.587 105.558 146.587 105.363C146.587 105.169 146.509 104.982 146.372 104.845C146.234 104.707 146.048 104.63 145.853 104.63Z"
            fill="#E6E6E6" />
    <path d="M179.091 183.456C182.658 180.934 183.504 175.999 180.982 172.433C178.46 168.866 173.525 168.02 169.959 170.542C166.393 173.064 165.546 177.999 168.068 181.565C170.59 185.131 175.525 185.978 179.091 183.456Z"
            fill="#49A0BF" />
    <path fill-rule="evenodd" clip-rule="evenodd"
            d="M174.678 172.822C174.678 172.655 174.543 172.52 174.376 172.52C174.209 172.52 174.074 172.655 174.074 172.822V173.336C173.428 173.381 172.838 173.57 172.385 173.863C171.864 174.2 171.49 174.7 171.49 175.298C171.49 175.568 171.541 175.824 171.665 176.054C171.79 176.286 171.978 176.475 172.225 176.621C172.655 176.874 173.269 177.003 174.074 177.028V179.759C173.464 179.718 172.929 179.555 172.536 179.322C172.074 179.048 171.859 178.713 171.859 178.401C171.859 178.234 171.724 178.099 171.557 178.099C171.39 178.099 171.255 178.234 171.255 178.401C171.255 179.012 171.671 179.512 172.228 179.842C172.723 180.135 173.368 180.323 174.074 180.365V180.877C174.074 181.044 174.209 181.179 174.376 181.179C174.543 181.179 174.678 181.044 174.678 180.877V180.368C175.367 180.34 176.011 180.214 176.51 179.951C177.099 179.641 177.497 179.131 177.497 178.401C177.497 178.063 177.43 177.757 177.283 177.49C177.135 177.223 176.916 177.014 176.64 176.856C176.158 176.58 175.493 176.456 174.678 176.433V173.942C175.217 173.986 175.691 174.146 176.039 174.371C176.454 174.639 176.658 174.974 176.658 175.298C176.658 175.465 176.793 175.6 176.96 175.6C177.127 175.6 177.262 175.465 177.262 175.298C177.262 174.7 176.888 174.2 176.367 173.863C175.914 173.57 175.324 173.381 174.678 173.336V172.822ZM174.074 173.942C173.534 173.986 173.061 174.146 172.713 174.371C172.298 174.639 172.094 174.974 172.094 175.298C172.094 175.49 172.13 175.644 172.197 175.768C172.263 175.892 172.368 176.003 172.532 176.1C172.834 176.278 173.323 176.398 174.074 176.423V173.942ZM174.678 177.037V179.763C175.304 179.736 175.841 179.62 176.229 179.417C176.66 179.189 176.893 178.864 176.893 178.401C176.893 178.143 176.842 177.942 176.754 177.783C176.667 177.625 176.534 177.491 176.34 177.38C175.986 177.178 175.443 177.061 174.678 177.037Z"
            fill="#F8FAFC" />
    <path d="M176.243 70.7167C179.158 68.6556 179.85 64.622 177.789 61.7074C175.727 58.7928 171.694 58.1009 168.779 60.162C165.865 62.2231 165.173 66.2567 167.234 69.1713C169.295 72.0859 173.328 72.7778 176.243 70.7167Z"
            fill="#49A0BF" />
    <path fill-rule="evenodd" clip-rule="evenodd"
            d="M172.636 62.0259C172.636 61.8896 172.526 61.7791 172.389 61.7791C172.253 61.7791 172.142 61.8896 172.142 62.0259V62.446C171.615 62.4829 171.132 62.6372 170.762 62.8768C170.337 63.1517 170.03 63.5608 170.03 64.0496C170.03 64.2697 170.072 64.4792 170.174 64.6675C170.276 64.857 170.43 65.011 170.632 65.1302C170.983 65.3376 171.485 65.4428 172.142 65.4631V67.6956C171.644 67.6621 171.207 67.5285 170.886 67.3385C170.508 67.1144 170.332 66.8401 170.332 66.5854C170.332 66.449 170.222 66.3385 170.085 66.3385C169.949 66.3385 169.838 66.449 169.838 66.5854C169.838 67.0847 170.178 67.4931 170.634 67.7632C171.038 68.0028 171.565 68.1561 172.142 68.1903V68.6091C172.142 68.7454 172.253 68.8559 172.389 68.8559C172.526 68.8559 172.636 68.7454 172.636 68.6091V68.1928C173.199 68.1701 173.725 68.0671 174.134 67.8523C174.615 67.5991 174.94 67.1824 174.94 66.5854C174.94 66.3089 174.886 66.0587 174.765 65.8412C174.645 65.6227 174.466 65.4517 174.24 65.3226C173.846 65.0974 173.302 64.9959 172.636 64.9766V62.9411C173.077 62.977 173.464 63.1074 173.749 63.2915C174.088 63.5107 174.255 63.7844 174.255 64.0496C174.255 64.186 174.365 64.2965 174.501 64.2965C174.638 64.2965 174.748 64.186 174.748 64.0496C174.748 63.5608 174.442 63.1517 174.017 62.8768C173.646 62.6372 173.164 62.4829 172.636 62.446V62.0259ZM172.142 62.9411C171.702 62.977 171.315 63.1074 171.03 63.2915C170.691 63.5107 170.524 63.7844 170.524 64.0496C170.524 64.2066 170.554 64.3319 170.609 64.4337C170.663 64.5344 170.749 64.6258 170.883 64.705C171.129 64.8503 171.529 64.9486 172.142 64.9691V62.9411ZM172.636 65.4706V67.6986C173.148 67.6761 173.587 67.582 173.904 67.4153C174.256 67.2297 174.447 66.9637 174.447 66.5854C174.447 66.3742 174.405 66.2099 174.333 66.08C174.262 65.9511 174.153 65.8417 173.995 65.7513C173.705 65.5858 173.261 65.49 172.636 65.4706Z"
            fill="#F8FAFC" />
    <defs>
        <linearGradient id="paint0_linear_1389_38792" x1="213.44" y1="114.788" x2="153.694"
                y2="114.788" gradientUnits="userSpaceOnUse">
            <stop stop-color="#B739E2" />
            <stop offset="1" stop-color="#7E3996" />
        </linearGradient>
        <linearGradient id="paint1_linear_1389_38792" x1="149.805" y1="105.411" x2="136.112"
                y2="105.411" gradientUnits="userSpaceOnUse">
            <stop stop-color="#B739E2" />
            <stop offset="1" stop-color="#7E3996" />
        </linearGradient>
    </defs>
</svg>
