<svg width="24" height="24" viewBox="0 0 24 24" fill="none" xmlns="http://www.w3.org/2000/svg">
<path fill-rule="evenodd" clip-rule="evenodd" d="M3.56609 20.7731H20.4377C20.6287 20.7731 20.7815 20.6203 20.7815 20.4331V4.61572L20.094 5.79983V20.0855H3.90987L3.91369 5.79983L3.568 5.20778L3.22232 4.61572V20.4293C3.22232 20.6203 3.37511 20.7731 3.56609 20.7731Z" fill="#D40512"/>
<path d="M3.22232 4.61572L3.568 5.20778L3.91369 5.79983H20.094L20.7815 4.61572H3.22232Z" fill="#D40512"/>
<path d="M17.387 20.7727H6.62304C6.43206 20.7727 6.27927 20.6199 6.27927 20.4289V12.8354C6.27927 12.6444 6.43206 12.4916 6.62304 12.4916H17.387C17.578 12.4916 17.7308 12.6444 17.7308 12.8354V20.4289C17.7308 20.6199 17.5741 20.7727 17.387 20.7727ZM6.96299 20.0852H17.0394V13.1791H6.96299V20.0852Z" fill="#D40512"/>
<path d="M18.342 13.1807H5.66439C5.47341 13.1807 5.32062 13.028 5.32062 12.837V11.416C5.32062 11.2251 5.47341 11.0723 5.66439 11.0723H18.342C18.533 11.0723 18.6858 11.2251 18.6858 11.416V12.8408C18.6858 13.028 18.533 13.1807 18.342 13.1807ZM6.00817 12.4932H17.9982V11.7598H6.00817V12.4932Z" fill="#D40512"/>
<path d="M11.6804 20.7727H6.61932C6.42833 20.7727 6.27554 20.6199 6.27554 20.4289V17.0867C6.27554 16.8957 6.42833 16.7429 6.61932 16.7429H11.6804C11.8714 16.7429 12.0242 16.8957 12.0242 17.0867V20.4289C12.0242 20.6199 11.8714 20.7727 11.6804 20.7727ZM6.96309 20.0852H11.3367V17.4305H6.96309V20.0852Z" fill="#D40512"/>
<path d="M15.1209 20.7731H11.6793C11.4883 20.7731 11.3355 20.6203 11.3355 20.4293V18.4622C11.3355 18.2712 11.4883 18.1184 11.6793 18.1184H15.1209C15.3119 18.1184 15.4646 18.2712 15.4646 18.4622V20.4293C15.4646 20.6203 15.3119 20.7731 15.1209 20.7731ZM12.0231 20.0856H14.7771V18.806H12.0231V20.0856Z" fill="#D40512"/>
<path d="M21.6562 20.7731H2.34377C2.15279 20.7731 2 20.6203 2 20.4293C2 20.2384 2.15279 20.0856 2.34377 20.0856H21.6562C21.8472 20.0856 22 20.2384 22 20.4293C22 20.6203 21.8472 20.7731 21.6562 20.7731Z" fill="#D40512"/>
<path d="M10.6669 19.0542H9.21925C9.02826 19.0542 8.87549 18.9015 8.87549 18.7105C8.87549 18.5195 9.02826 18.3667 9.21925 18.3667H10.6669C10.8579 18.3667 11.0107 18.5195 11.0107 18.7105C11.0107 18.9015 10.8579 19.0542 10.6669 19.0542Z" fill="#D40512"/>
<path d="M11.0963 6.85368L10.3821 8.21351L10.6651 6.85276L7.71137 6.8468L6.58365 10.1091L9.25709 10.1145L9.96189 8.12028L9.55903 10.1152L10.0333 10.1161L10.9322 8.12223L10.3353 10.1167L11.0359 10.118L12.0234 6.85552L11.0964 6.85368H11.0963ZM9.33174 8.55903C9.24769 8.71545 8.48647 9.54914 7.83912 9.71978C7.30852 9.85957 7.02079 9.5465 7.15061 8.99904C7.17698 8.88803 7.21609 8.63253 7.45691 8.28748C7.59119 8.09493 8.07042 7.46513 8.69048 7.42385C8.7915 7.41709 9.03313 7.40103 9.147 7.55974C9.19539 7.62717 9.20503 7.70412 9.20789 7.72912C9.21489 7.79127 9.21535 7.92877 9.07063 8.12429C8.72981 8.58472 7.95173 8.819 7.91699 8.82932C7.91699 8.82932 7.76825 8.87037 7.67502 8.99376C7.65094 9.02564 7.63408 9.06039 7.63408 9.06039C7.62445 9.08023 7.59349 9.14858 7.59039 9.25236C7.59039 9.25373 7.59027 9.25591 7.59027 9.25867C7.58901 9.34181 7.61665 9.47586 7.69383 9.52838C7.75197 9.56795 7.82467 9.55189 7.86676 9.54111C8.28406 9.43469 8.52546 9.24273 8.52546 9.24273C8.80091 9.02358 9.50181 8.24298 9.33186 8.55903H9.33174Z" fill="#D40512"/>
<path d="M8.47375 8.34348C8.5421 8.29062 8.67099 8.17342 8.75517 7.98604C8.78406 7.9217 8.84668 7.78226 8.79049 7.70164C8.76766 7.66896 8.73361 7.65795 8.72455 7.6552C8.63774 7.62848 8.54439 7.7037 8.4749 7.76838C8.28843 7.94189 8.17353 8.13271 8.04383 8.34256C7.9975 8.41745 7.92296 8.53751 7.82812 8.68716C7.87904 8.7679 8.25449 8.51297 8.47375 8.34348Z" fill="#D40512"/>
<path d="M13.1655 7.38271C12.6679 7.20072 12.1066 7.4608 11.8675 7.99393C11.6844 8.40229 11.5707 8.8407 11.4531 9.27532C11.2947 9.86074 11.4779 10.1215 12.0549 10.1206C12.4633 10.0972 12.8311 9.92336 13.0325 9.46786C13.2394 8.99976 13.3814 8.5016 13.4927 7.99554C13.5583 7.69727 13.4288 7.47904 13.1654 7.38271H13.1655ZM12.8209 8.03476C12.6559 8.50424 12.4882 8.97292 12.3191 9.44114C12.2905 9.52004 12.2519 9.60891 12.1334 9.58541C12.0363 9.56614 12.0784 9.48415 12.0747 9.39367C12.2427 8.93691 12.4191 8.45183 12.6008 7.96836C12.6277 7.89703 12.6921 7.83041 12.7854 7.86492C12.8659 7.89474 12.8417 7.9757 12.8209 8.03476Z" fill="#D40512"/>
<path d="M13.8004 7.33484L13.357 10.1085L14.3825 10.1106L15.6555 7.33862L14.9527 7.33713L14.1192 9.24981L14.5264 7.33633L13.8004 7.33484Z" fill="#D40512"/>
<path d="M16.9364 7.40322C16.4412 7.22203 15.8824 7.48086 15.6445 8.01158C15.4623 8.41799 15.3491 8.85433 15.232 9.28689C15.0743 9.86956 15.2568 10.1292 15.8311 10.1282C16.2376 10.1049 16.6037 9.93183 16.8041 9.47851C16.8926 9.27829 16.9691 9.07244 17.0365 8.86282L16.3063 8.86133C16.2359 9.05822 16.1651 9.25512 16.094 9.45191C16.0657 9.53046 16.0272 9.61888 15.9093 9.59548C15.8126 9.57633 15.8545 9.49468 15.8509 9.40466L16.3745 7.986C16.4012 7.91491 16.4653 7.84874 16.5581 7.88303C16.6381 7.91261 16.6142 7.99323 16.5935 8.05206C16.5257 8.24517 16.4573 8.43817 16.3885 8.63106L17.1065 8.63255C17.1652 8.42842 17.2163 8.22155 17.2621 8.01318C17.3273 7.71629 17.1985 7.49909 16.9364 7.40322Z" fill="#D40512"/>
<path d="M16.4503 8.28523L16.1215 8.28455L16.0112 8.63006L16.34 8.63075L16.997 8.63213L17.108 8.28661L16.4503 8.28523Z" fill="#D40512"/>
</svg>
