<svg width="30" height="30" viewBox="0 0 30 30" fill="none" xmlns="http://www.w3.org/2000/svg">
<rect width="30" height="30" rx="4" fill="white"/>
<rect x="3" y="3" width="24" height="24" rx="4" fill="white"/>
<path d="M15 26C8.93533 26 4 21.0647 4 15C4 8.93533 8.93533 4 15 4C21.0647 4 26 8.93533 26 15C26 21.0647 21.0647 26 15 26ZM15 5.57399C9.7979 5.57399 5.57399 9.80679 5.57399 15C5.57399 20.1932 9.80679 24.426 15 24.426C20.1932 24.426 24.426 20.1932 24.426 15C24.426 9.7979 20.1932 5.57399 15 5.57399Z" fill="#D2010C"/>
<path d="M17.6117 21.2892H12.3829C11.5025 21.2892 10.7911 20.5778 10.7911 19.6975V18.4259C10.7911 17.9901 11.1468 17.6344 11.5825 17.6344C12.0183 17.6344 12.374 17.9901 12.374 18.4259V19.6975L17.6205 19.7152L17.6383 15.8115L12.3918 15.7937C11.5114 15.7937 10.8 15.0823 10.8 14.2019V10.307C10.8 9.42665 11.5114 8.71524 12.3918 8.71524H17.6205C18.5009 8.71524 19.2123 9.42665 19.2123 10.307V11.5786C19.2123 12.0143 18.8566 12.3701 18.4209 12.3701C17.9852 12.3701 17.6294 12.0143 17.6294 11.5786V10.307L12.3829 10.2892L12.3651 14.1931L17.6117 14.2108C18.492 14.2108 19.2034 14.9222 19.2034 15.8026V19.6886C19.2034 20.5689 18.4831 21.2892 17.6117 21.2892Z" fill="#D40512"/>
<path d="M14.9954 22.4604C14.5597 22.4604 14.204 22.1046 14.204 21.6689V8.32128C14.204 7.88555 14.5597 7.52988 14.9954 7.52988C15.4311 7.52988 15.7868 7.88555 15.7868 8.32128V21.6689C15.7779 22.1046 15.4222 22.4604 14.9954 22.4604Z" fill="#D40512"/>
</svg>
