<svg width="25" height="25" viewBox="0 0 25 25" fill="none" xmlns="http://www.w3.org/2000/svg">
<path d="M16.625 6.5C16.625 7.49456 16.2299 8.44839 15.5266 9.15165C14.8234 9.85491 13.8695 10.25 12.875 10.25C11.8804 10.25 10.9266 9.85491 10.2233 9.15165C9.52006 8.44839 9.12498 7.49456 9.12498 6.5C9.12498 5.50544 9.52006 4.55161 10.2233 3.84835C10.9266 3.14509 11.8804 2.75 12.875 2.75C13.8695 2.75 14.8234 3.14509 15.5266 3.84835C16.2299 4.55161 16.625 5.50544 16.625 6.5ZM5.37598 20.618C5.40811 18.6504 6.21231 16.7742 7.61515 15.394C9.01799 14.0139 10.9071 13.2405 12.875 13.2405C14.8429 13.2405 16.732 14.0139 18.1348 15.394C19.5376 16.7742 20.3418 18.6504 20.374 20.618C18.0214 21.6968 15.4631 22.2535 12.875 22.25C10.199 22.25 7.65898 21.666 5.37598 20.618Z" stroke="#E00510" stroke-width="1.5" stroke-linecap="round" stroke-linejoin="round"/>
</svg>
