<svg width="24" height="24" viewBox="0 0 24 24" fill="none" xmlns="http://www.w3.org/2000/svg">
<g id="Group">
<path id="Vector" d="M1.33337 19.9998C1.33337 18.5853 1.89528 17.2288 2.89547 16.2286C3.89566 15.2284 5.25222 14.6665 6.66671 14.6665H17.3334C18.7479 14.6665 20.1044 15.2284 21.1046 16.2286C22.1048 17.2288 22.6667 18.5853 22.6667 19.9998C22.6667 20.7071 22.3858 21.3854 21.8857 21.8855C21.3856 22.3856 20.7073 22.6665 20 22.6665H4.00004C3.2928 22.6665 2.61452 22.3856 2.11442 21.8855C1.61433 21.3854 1.33337 20.7071 1.33337 19.9998Z" stroke="#8331A7" stroke-width="2" stroke-linejoin="round"/>
<path id="Vector_2" d="M12 9.33325C14.2091 9.33325 16 7.54239 16 5.33325C16 3.12411 14.2091 1.33325 12 1.33325C9.79086 1.33325 8 3.12411 8 5.33325C8 7.54239 9.79086 9.33325 12 9.33325Z" stroke="#8331A7" stroke-width="2"/>
</g>
</svg>
