<svg width="16" height="16" viewBox="0 0 16 16" fill="none" xmlns="http://www.w3.org/2000/svg">
<path d="M9.63397 1.08813V3.77605C9.63397 4.14007 9.77898 4.48989 10.0376 4.74777C10.2969 5.00593 10.6479 5.1508 11.0138 5.15066H14.0971" stroke="white" stroke-width="1.5" stroke-linecap="round" stroke-linejoin="round"/>
<path d="M14.1666 5.43476V11.8391C14.1518 12.258 14.0542 12.6699 13.8795 13.0509C13.7048 13.4319 13.4564 13.7746 13.1486 14.0591C12.8406 14.345 12.4792 14.5674 12.0852 14.7136C11.6912 14.8598 11.2723 14.927 10.8523 14.9113H5.17901C4.75649 14.9306 4.33432 14.8663 3.93669 14.7221C3.53906 14.5779 3.1738 14.3567 2.86184 14.0711C2.55109 13.7857 2.30014 13.4415 2.12358 13.0583C1.94701 12.6752 1.84835 12.2607 1.83331 11.8391V4.15957C1.84815 3.74067 1.94575 3.32884 2.12048 2.94783C2.29521 2.56681 2.54361 2.22415 2.85137 1.93957C3.15939 1.65368 3.52072 1.43128 3.91472 1.28507C4.30872 1.13886 4.72766 1.07171 5.14762 1.08745H9.41869C10.0707 1.08515 10.7001 1.32639 11.1835 1.76392L13.396 3.79854C13.6321 4.00191 13.8227 4.25271 13.9555 4.53462C14.0883 4.81652 14.1602 5.12322 14.1666 5.43476Z" stroke="white" stroke-width="1.5" stroke-linecap="round" stroke-linejoin="round"/>
<path d="M9.47327 11.5572C9.99351 11.2127 10.3763 10.6966 10.555 10.0987C10.7337 9.5009 10.697 8.85931 10.4512 8.28582C10.2053 7.71232 9.76603 7.24327 9.20985 6.96045M9.47327 11.5572V9.85432M9.47327 11.5572H11.183M6.51942 7.12097C6.00099 7.46675 5.62014 7.9833 5.44311 8.58079C5.26608 9.17829 5.30407 9.81893 5.55047 10.3913C5.79687 10.9637 6.23609 11.4316 6.79176 11.7137M6.51942 7.12097V8.81913M6.51942 7.12097H4.81653" stroke="white" stroke-linecap="round" stroke-linejoin="round"/>
</svg>
