<svg width="14" height="13" viewBox="0 0 14 13" fill="none" xmlns="http://www.w3.org/2000/svg">
<g id="elements">
<g id="Icon">
<path d="M0.250004 0.5C0.250004 0.223858 0.473861 0 0.750004 0H11.4167C11.6928 0 11.9167 0.223858 11.9167 0.5C11.9167 0.776142 11.6928 1 11.4167 1H0.750004C0.473861 1 0.250004 0.776142 0.250004 0.5Z" fill="#7E3996"/>
<path d="M0.750004 4C0.473861 4 0.250002 4.22386 0.25 4.5C0.249998 4.77614 0.473854 5 0.749996 5L8.08333 5.00006C8.35947 5.00006 8.58333 4.7762 8.58333 4.50006C8.58334 4.22392 8.35948 4.00006 8.08334 4.00006L0.750004 4Z" fill="#7E3996"/>
<path d="M0.750004 8C0.473861 8 0.250004 8.22386 0.250004 8.5C0.250004 8.77614 0.473861 9 0.750004 9H5.41667C5.69281 9 5.91667 8.77614 5.91667 8.5C5.91667 8.22386 5.69281 8 5.41667 8H0.750004Z" fill="#7E3996"/>
<path d="M11.5833 4.5C11.5833 4.22386 11.3595 4 11.0833 4C10.8072 4 10.5833 4.22386 10.5833 4.5V11.4746L10.5793 11.4699C10.4389 11.3041 10.3013 11.1289 10.1727 10.9651L10.1429 10.9271C10.0147 10.764 9.87992 10.5926 9.77521 10.4848C9.58274 10.2868 9.26619 10.2823 9.06818 10.4748C8.87016 10.6673 8.86566 10.9838 9.05813 11.1818C9.11726 11.2427 9.21435 11.3639 9.35648 11.5448L9.38785 11.5848C9.51455 11.7462 9.66323 11.9356 9.81636 12.1163C9.9805 12.31 10.1642 12.5112 10.3479 12.6676C10.4399 12.746 10.5436 12.8233 10.6552 12.8831C10.7628 12.9407 10.9111 13 11.0833 13C11.2555 13 11.4038 12.9407 11.5115 12.8831C11.623 12.8233 11.7268 12.746 11.8188 12.6676C12.0025 12.5112 12.1862 12.31 12.3503 12.1163C12.5034 11.9356 12.6521 11.7463 12.7788 11.5849L12.8102 11.5448C12.9523 11.3639 13.0494 11.2427 13.1085 11.1818C13.301 10.9838 13.2965 10.6673 13.0985 10.4748C12.9005 10.2823 12.5839 10.2868 12.3915 10.4848C12.2868 10.5926 12.1519 10.764 12.0238 10.9271L11.994 10.9651C11.8654 11.1289 11.7278 11.3041 11.5874 11.4699L11.5833 11.4746V4.5Z" fill="#7E3996"/>
</g>
</g>
</svg>
