<svg xmlns="http://www.w3.org/2000/svg" width="8.511" height="15.028" viewBox="0 0 8.511 15.028">
  <path id="Path_47419" data-name="Path 47419" d="M-499.615-106.976a.727.727,0,0,0-.03.08,1.144,1.144,0,0,1-1.13.888c-.21,0-.421,0-.631,0a.585.585,0,0,1-.585-.59.585.585,0,0,1,.592-.582c.176,0,.352,0,.546,0a.5.5,0,0,0-.049-.075q-1.266-1.276-2.533-2.549a.575.575,0,0,0-.861-.007q-1.28,1.282-2.555,2.569c-.01.01-.018.023-.049.062h2.383a1.174,1.174,0,0,1,1.234,1.235q0,4.533,0,9.066a.672.672,0,0,1-.473.732h-.235a.67.67,0,0,1-.474-.731q.011-4.466,0-8.933v-.195h-2.465a1.146,1.146,0,0,1-1.114-.709,1.145,1.145,0,0,1,.287-1.289q1.287-1.3,2.576-2.589a1.754,1.754,0,0,1,2.605,0c.856.859,1.708,1.721,2.567,2.577a1.479,1.479,0,0,1,.386.692Z" transform="translate(508.126 111.176)" fill="#7E3996"/>
</svg>
