<svg width="14" height="16" viewBox="0 0 14 16" fill="none" xmlns="http://www.w3.org/2000/svg">
<g id="Group">
<path id="Vector" d="M8.634 1.08813V3.77605C8.634 4.14007 8.77901 4.48989 9.03764 4.74777C9.29692 5.00593 9.64795 5.1508 10.0138 5.15066H13.0972" stroke="white" stroke-width="1.5" stroke-linecap="round" stroke-linejoin="round"/>
<path id="Vector_2" d="M13.1667 5.43476V11.8391C13.1518 12.258 13.0542 12.6699 12.8795 13.0509C12.7048 13.4319 12.4564 13.7746 12.1486 14.0591C11.8406 14.345 11.4793 14.5674 11.0853 14.7136C10.6913 14.8598 10.2723 14.927 9.85237 14.9113H4.17904C3.75652 14.9306 3.33435 14.8663 2.93672 14.7221C2.53909 14.5779 2.17383 14.3567 1.86187 14.0711C1.55112 13.7857 1.30017 13.4415 1.12361 13.0583C0.947042 12.6752 0.848376 12.2607 0.833344 11.8391V4.15957C0.848184 3.74067 0.94578 3.32884 1.12051 2.94783C1.29524 2.56681 1.54364 2.22415 1.8514 1.93957C2.15942 1.65368 2.52075 1.43128 2.91475 1.28507C3.30875 1.13886 3.72769 1.07171 4.14765 1.08745H8.41872C9.07072 1.08515 9.70009 1.32639 10.1835 1.76392L12.396 3.79854C12.6321 4.00191 12.8228 4.25271 12.9555 4.53462C13.0883 4.81652 13.1603 5.12322 13.1667 5.43476Z" stroke="white" stroke-width="1.5" stroke-linecap="round" stroke-linejoin="round"/>
<path id="Vector_3" d="M7 6.87817V11.9416" stroke="white" stroke-width="1.5" stroke-miterlimit="10" stroke-linecap="round"/>
<path id="Vector_4" d="M9.32166 9.00935L7.32964 7.01733C7.28653 6.97371 7.2352 6.93908 7.17862 6.91544C7.12204 6.89181 7.06132 6.87964 7 6.87964C6.93868 6.87964 6.87797 6.89181 6.82138 6.91544C6.7648 6.93908 6.71347 6.97371 6.67037 7.01733L4.67834 9.01009" stroke="white" stroke-width="1.5" stroke-linecap="round" stroke-linejoin="round"/>
</g>
</svg>
