<svg width="25" height="24" viewBox="0 0 25 24" fill="none" xmlns="http://www.w3.org/2000/svg">
<path d="M20 6.75H5C3.75736 6.75 2.75 7.75736 2.75 9V18C2.75 19.2426 3.75736 20.25 5 20.25H20C21.2426 20.25 22.25 19.2426 22.25 18V9C22.25 7.75736 21.2426 6.75 20 6.75Z" stroke="#9CA3AF" stroke-width="1.5" stroke-linejoin="round"/>
<path d="M19.7825 6.74998V5.34373C19.7824 4.99883 19.7062 4.6582 19.5592 4.34615C19.4123 4.0341 19.1984 3.75832 18.9326 3.53849C18.6668 3.31866 18.3558 3.16019 18.0217 3.0744C17.6877 2.98861 17.3388 2.9776 17 3.04217L4.655 5.1492C4.1189 5.25136 3.63526 5.53741 3.28749 5.958C2.93972 6.37859 2.74963 6.90736 2.75 7.4531V9.74998" stroke="#9CA3AF" stroke-width="1.5" stroke-linejoin="round"/>
<path d="M17.75 15C17.4533 15 17.1633 14.912 16.9166 14.7472C16.67 14.5824 16.4777 14.3481 16.3642 14.074C16.2506 13.7999 16.2209 13.4983 16.2788 13.2074C16.3367 12.9164 16.4796 12.6491 16.6893 12.4393C16.8991 12.2296 17.1664 12.0867 17.4574 12.0288C17.7483 11.9709 18.0499 12.0006 18.324 12.1142C18.5981 12.2277 18.8324 12.42 18.9972 12.6666C19.162 12.9133 19.25 13.2033 19.25 13.5C19.25 13.8978 19.092 14.2794 18.8107 14.5607C18.5294 14.842 18.1478 15 17.75 15Z" fill="#9CA3AF"/>
</svg>
