<svg width="16" height="16" viewBox="0 0 16 16" fill="none" xmlns="http://www.w3.org/2000/svg">
    <g id="icons/ic-eva:alert-triangle-fill">
        <path id="primary-shape" fill-rule="evenodd" clip-rule="evenodd"
            d="M15.04 10.8667L9.92665 2.38669C9.50646 1.72935 8.78014 1.3316 7.99999 1.3316C7.21983 1.3316 6.49351 1.72935 6.07332 2.38669L0.959986 10.8667C0.59235 11.4795 0.579643 12.2419 0.926652 12.8667C1.32797 13.5701 2.07681 14.0031 2.88665 14H13.1133C13.9177 14.0086 14.6652 13.5865 15.0733 12.8934C15.4307 12.2618 15.418 11.4862 15.04 10.8667ZM7.99999 11.3334C7.6318 11.3334 7.33332 11.0349 7.33332 10.6667C7.33332 10.2985 7.6318 10 7.99999 10C8.36818 10 8.66665 10.2985 8.66665 10.6667C8.66665 11.0349 8.36818 11.3334 7.99999 11.3334ZM7.99999 9.33335C8.36818 9.33335 8.66665 9.03488 8.66665 8.66669V6.00002C8.66665 5.63183 8.36818 5.33335 7.99999 5.33335C7.6318 5.33335 7.33332 5.63183 7.33332 6.00002V8.66669C7.33332 9.03488 7.6318 9.33335 7.99999 9.33335Z"
            fill="#EAB308" />
    </g>
</svg>
