<svg width="364" height="286" viewBox="0 0 364 286" fill="none" xmlns="http://www.w3.org/2000/svg">
    <path d="M51.4001 249.847L14.7001 283.547C14.2001 283.947 11.7001 285.747 7.40015 285.647C2.50015 285.447 0.100098 284.247 0.100098 284.247C12.5001 272.847 24.9001 261.447 37.2001 250.047C37.8001 249.747 40.6001 248.347 44.0001 248.347C47.9001 248.347 51.4001 249.847 51.4001 249.847Z"
            fill="#5F8BC7" />
    <path d="M51.3999 273.147C55.2999 273.147 58.7999 274.647 58.7999 274.647L49.0999 283.547C49.0999 283.547 46.5998 285.847 41.6998 285.747C36.7998 285.547 34.3999 284.347 34.3999 284.347C37.8999 281.147 41.2999 277.947 44.7999 274.747C45.6999 274.247 48.2999 273.147 51.3999 273.147Z"
            fill="#5C96CF" />
    <path d="M65.9999 228.147C69.8999 228.147 73.3999 229.647 73.3999 229.647L65.6998 236.747C64.5998 237.447 62.3998 238.347 59.1998 238.247C54.2998 238.047 51.8999 236.847 51.8999 236.847C54.5999 234.347 57.1999 231.947 59.8999 229.447C60.9999 228.947 63.2999 228.147 65.9999 228.147Z"
            fill="#5D91CB" />
    <path d="M72.8 261.647C72.3 262.047 69.8 263.847 65.5 263.747C60.6 263.547 58.2 262.347 58.2 262.347C68.6 252.747 79 243.147 89.4 233.547C90.1 233.247 92.7999 231.847 96.2 231.847C100.1 231.847 103.6 233.347 103.6 233.347L72.8 261.647Z"
            fill="#589ED4" />
    <path d="M134.3 236.747L83.9001 283.347C83.9001 283.347 81.3001 285.747 76.2001 285.647C71.1001 285.447 68.6001 284.247 68.6001 284.247C85.5001 268.547 102.5 252.747 119.4 237.047C119.4 237.047 122.5 235.247 126.6 235.247C130.7 235.147 134.3 236.747 134.3 236.747Z"
            fill="#52AADD" />
    <path d="M128.8 170.547C132.7 170.547 136.2 172.047 136.2 172.047L87.5999 216.647C87.5999 216.647 85.0998 218.947 80.1998 218.847C75.2998 218.647 72.8999 217.447 72.8999 217.447C89.1999 202.347 105.6 187.347 121.9 172.247C121.8 172.247 124.8 170.547 128.8 170.547Z"
            fill="#599CD3" />
    <path d="M122.3 278.947L117.5 283.447L117.4 283.548C116.9 283.948 114.4 285.748 110.1 285.648C105.5 285.448 103.1 284.448 102.8 284.348C104.6 282.648 106.4 281.048 108.2 279.348C108.2 279.348 111.2 277.648 115.1 277.648C118.4 277.548 121.6 278.747 122.3 278.947Z"
            fill="#4EB7E5" />
    <path d="M117.2 212.748C120.8 212.748 124.1 214.048 124.6 214.148L117.5 220.748C117.5 220.748 115 223.048 110.1 222.948C105.2 222.748 102.8 221.548 102.8 221.548C105.4 219.148 108 216.748 110.6 214.448C111.1 214.148 113.8 212.748 117.2 212.748Z"
            fill="#53A7DC" />
    <path d="M134.9 267.647L128.7 273.347L128.6 273.447C128.1 273.847 125.6 275.647 121.3 275.547C116.4 275.347 114 274.147 114 274.147C116.1 272.247 118.2 270.347 120.2 268.347C120.6 267.947 121 267.547 121.5 267.147C121.8 266.947 122.1 266.647 122.4 266.347C122.8 266.047 123.2 265.647 123.6 265.247C123.7 265.147 123.8 265.047 123.9 265.047C127.4 261.847 130.9 258.647 134.4 255.447C134.4 255.447 134.5 255.447 134.5 255.347L134.6 255.247C135.5 254.847 138 253.647 141.2 253.647C145.1 253.647 148.6 255.147 148.6 255.147L148.5 255.247L148.3 255.447L147.7 255.947L147.3 256.347L143 260.247L142.7 260.547L142.2 261.047L137.6 265.347L134.9 267.647Z"
            fill="#53B8E0" />
    <path d="M145.9 185.748C149.8 185.748 153.3 187.248 153.3 187.248L136.7 202.448C135.6 203.148 133.4 204.248 129.9 204.148C125 203.948 122.6 202.748 122.6 202.748C128.2 197.548 133.8 192.348 139.5 187.248C140.5 186.748 143 185.748 145.9 185.748Z"
            fill="#51ADE0" />
    <path d="M163.6 201.448C167.2 201.448 170.5 202.748 170.9 202.948L149.1 223.048C149.1 223.048 146.6 225.347 141.6 225.247C136.7 225.047 134.3 223.848 134.3 223.848C141.7 216.948 149.2 210.147 156.6 203.247C156.9 203.047 159.8 201.448 163.6 201.448Z"
            fill="#50B7E3" />
    <path d="M149.5 275.248C153.3 275.248 156.6 276.648 156.9 276.748L149.6 283.448C149.6 283.448 147.1 285.748 142.1 285.648C137.2 285.448 134.8 284.248 134.8 284.248C137.5 281.748 140.1 279.348 142.8 276.848C143.7 276.448 146.3 275.248 149.5 275.248Z"
            fill="#59B9DC" />
    <path d="M148.5 242.147C149.7 241.047 150.9 239.947 152.1 238.847C152 238.847 151.9 238.947 151.9 238.947C157.2 234.047 162.5 229.147 167.8 224.247C169.9 222.347 171.9 220.447 174 218.547C174 218.547 174.1 218.547 174.2 218.447C175 218.047 177.6 216.847 180.9 216.847C184.8 216.847 188.3 218.347 188.3 218.347L182.1 224.047L166 238.747L163.3 241.247L163.2 241.347L163.1 241.447L163 241.547C162.2 242.147 159.8 243.647 155.8 243.547C150.9 243.347 148.5 242.147 148.5 242.147Z"
            fill="#59B9DC" />
    <path d="M203.6 233.547C203.7 233.547 203.7 233.547 203.6 233.547L197.2 239.447L172.2 262.447C172.2 262.447 169.7 264.747 164.8 264.647C159.9 264.447 157.5 263.247 157.5 263.247C168.2 253.447 178.8 243.647 189.5 233.747C190.2 233.447 192.9 232.047 196.3 232.047C200 232.047 203.4 233.447 203.6 233.547Z"
            fill="#5EBBD8" />
    <path d="M291.8 99.1473C291.1 93.9473 290.1 87.0473 286.1 79.2473C283.6 74.3473 282.8 74.7474 280 69.3474C278.4 66.3474 276.7 62.2473 274.4 53.6473C274.2 52.7473 273.9 51.8474 273.7 50.8474C271.3 40.9473 272.4 41.9473 269.9 31.1473C267.4 19.9473 265.1 13.6473 262.9 8.94733C262.9 8.94733 262.9 8.84735 262.8 8.84735C262.4 8.04735 262 7.24733 261.6 6.44733C260.3 3.94733 259 1.94734 258.2 0.64734C257.4 -0.0526602 256.9 -0.0526664 256.5 0.0473336C254.2 0.647334 255.6 8.54735 253.3 18.2473C252.6 21.0473 251.8 23.1473 250.1 27.4473C246.3 36.8473 242.1 43.8474 239.9 47.3474C233.8 57.2474 227.3 65.0473 210.3 84.6473C205.3 90.4473 199 97.6473 191.7 106.047C200.9 114.147 210 122.347 219.2 130.447L244.5 152.947C251.8 159.447 259.1 165.847 266.4 172.347C276.4 160.647 282.1 149.647 285.3 142.247C287.4 137.347 290.1 131.047 291.5 122.147C292.2 118.247 293.3 109.847 291.8 99.1473ZM264.2 146.047C263.1 146.947 262.1 147.047 261.7 146.947C260.5 146.947 259.6 146.147 259 145.647C257.7 144.647 257.5 143.747 256.9 143.747C256.4 143.747 256.2 144.347 255.6 145.247C255.3 145.647 253.8 147.747 252.4 147.947C251.5 148.147 250.6 147.547 249.9 146.947C249.1 146.247 248.5 145.347 248.4 145.147C247.9 143.847 247.5 142.047 248.1 140.247C249 137.247 251.7 137.047 253.6 133.347C254.2 132.247 255.5 129.647 254.5 127.347C253.7 125.647 252 124.947 251.4 124.747C249.5 123.947 247.7 124.247 247.1 124.347C244.7 125.347 242.5 126.147 240.7 126.547C238.3 127.147 236.8 127.547 234.6 127.447C233.3 127.447 230.6 127.347 228 125.847C228 125.847 227.4 125.547 225.4 123.647C224.7 123.047 223.9 122.247 222.8 121.247C222.8 121.247 222 119.847 221.3 117.947C220.5 116.047 219.8 113.647 219.8 111.647C219.8 107.747 220.7 103.547 220.7 103.547C220.7 103.547 216.9 101.347 217.5 98.0473C218 94.8473 219.5 94.1473 220.6 93.4473C221.4 93.3473 222.5 93.3474 223.7 93.8474C225.7 94.7474 225.7 96.4473 226.9 96.5473C228.7 96.7473 229.5 92.4473 232.8 91.2473C233.3 91.0473 233.9 90.9473 234.4 90.9473C235.5 90.9473 236.4 91.2473 237.1 91.5473C237.1 91.5473 239.3 93.5473 239.7 94.6473C240 95.6473 239.9 97.2473 239 98.2473C238.1 99.2473 230.3 103.247 229.4 108.447C228.5 113.647 231.6 115.247 233.1 115.847C234.6 116.447 241.5 114.847 244 113.047C244 113.047 251.5 110.447 256.9 114.347C261.1 117.347 262.7 120.647 263.2 123.347C263.2 123.547 263.3 123.747 263.3 123.947C263.4 124.547 263.4 125.147 263.4 125.647C263.3 128.547 262.9 134.247 262 135.947C262.6 136.347 263.6 137.047 264.4 138.247C264.5 138.447 265 139.247 265.3 140.147C265.6 142.947 264.6 145.347 264.2 146.047ZM279.2 108.247C278.9 116.747 276.2 124.947 276.2 124.947C276.2 124.947 274.8 127.547 273.8 126.347C273.5 125.947 273.3 125.547 273.1 125.147C273 124.747 272.9 124.347 272.8 123.747C272.8 123.547 272.7 123.247 272.7 123.047C272.7 122.847 272.6 122.647 272.6 122.347C272.5 121.347 272.3 120.047 271.9 118.347C271.8 117.847 271.7 117.347 271.6 116.847C271.4 116.047 271.2 115.147 270.9 114.247C268.5 106.047 262.8 96.5473 254.8 87.8474C246.8 79.1474 235.1 79.7473 235.1 79.7473C235.1 79.7473 235 79.7473 234.8 79.7473C234.3 79.6473 233.2 79.4473 233.6 77.8474C234.2 75.9473 236 74.1474 239.7 69.3474C243.5 64.5473 250.4 47.1473 250.9 44.7473C251.3 42.3473 252 42.0473 252 42.0473C252.2 41.6473 253.4 42.3474 254.4 43.3474C255.4 44.3474 257.5 44.8473 258.8 43.9473C260.2 43.0473 259 38.7473 259.8 38.6473C260.7 38.5473 261.2 40.1473 261.2 40.1473C261.2 40.1473 265.7 50.8473 266.3 52.9473C266.4 53.1473 266.4 53.4473 266.5 53.7473C267.2 57.0473 268.6 66.5473 268.6 66.5473C270.1 74.0473 274 77.3473 276.4 81.9473C279.1 86.6473 279.5 99.7473 279.2 108.247Z"
            fill="url(#paint0_linear_1266_5631)" />
    <path d="M291.8 99.1473C291.1 93.9473 290.1 87.0473 286.1 79.2473C283.6 74.3473 282.8 74.7473 280 69.3473C278.4 66.3473 276.7 62.2473 274.4 53.6473C274.2 52.7473 273.9 51.8473 273.7 50.8473C271.3 40.9473 272.4 41.9473 269.9 31.1473C267.4 19.9473 265.1 13.6473 262.9 8.94727C270.3 23.9473 275.7 37.1473 279.6 47.6473C287.2 68.3473 289.3 79.4473 290.2 85.4473C291.1 90.9473 291.6 95.7473 291.8 99.1473Z"
            fill="url(#paint1_linear_1266_5631)" />
    <path d="M273.4 9.74752C273 8.74752 272.2 6.64751 272.9 6.14751C273.7 5.44751 276 7.04751 276.8 7.64751C294.2 33.2475 307.5 53.0475 315.9 64.4475C318.1 67.5475 323.2 74.2475 323.9 83.8475C324.3 88.8475 323.4 93.1475 321.9 97.6475C315.3 117.348 295.4 143.947 291.8 148.747C288.6 152.247 285.3 155.648 282.1 159.148C282.8 157.948 292.6 141.748 296.4 129.548C297.7 125.248 298.4 123.148 298.8 120.048C299.5 114.848 298.7 113.448 300.1 110.048C301.2 107.448 302.3 106.848 303.3 103.548C304.1 100.848 304.1 98.9475 304 98.1475C303.9 96.7475 303.6 95.6475 303.3 94.3475C302.5 91.4475 302 91.2475 301.6 89.3475C301.4 88.4475 300.9 85.9475 301.7 83.1475C302.4 80.7475 303.5 80.3475 303.9 77.7475C304 77.1475 304.1 75.9475 303.9 74.4475C303.7 73.3475 303.3 72.1475 302 69.9475C300.5 67.5475 299 65.8475 297.2 63.8475C295.7 62.1475 294.9 61.4475 293.4 59.6475C292 57.8475 291.5 57.0475 291.3 56.6475C290.5 55.0475 290.4 53.8475 290.1 52.0475C289.7 50.0475 289.1 48.0475 288.5 46.0475C287.3 41.1475 284.6 35.3475 283.1 32.1475C278.1 21.3475 276.5 17.4475 273.4 9.74752Z"
            fill="url(#paint2_linear_1266_5631)" />
    <path d="M289.7 13.1474C287.3 9.64737 284.9 6.14737 282.5 2.64737C283.1 2.54737 283.7 2.54736 284.5 2.54736C285.6 2.64736 286.4 2.84736 287.1 3.04736C287.1 3.04736 289 3.74736 290.6 5.44736C293.1 8.04736 313.8 34.9474 341.8 71.8474C343.7 74.1474 344.9 76.3474 345.7 77.9474C346.3 79.2474 347 80.6474 347.4 82.5474C347.9 84.9474 347.9 86.8474 347.8 88.1474C347.8 88.1474 347.7 90.6474 347.1 93.1474C346.2 97.0474 336.2 111.247 320.3 128.947C310.5 138.847 300.8 148.747 291 158.647C295.8 152.547 309.3 135.147 319.7 117.847C320.9 115.847 325 108.847 328.3 99.1474C331.3 90.1474 331.3 85.6474 331.3 83.7474C331.1 77.2474 329 72.1474 327.5 69.1474C322.2 61.1474 316.9 53.0474 311.7 45.0474C304.4 34.5474 297.1 23.8474 289.7 13.1474Z"
            fill="url(#paint3_linear_1266_5631)" />
    <path d="M364 285.647H303.5C212.9 207.247 122.3 128.847 31.7 50.4473C52 50.4473 72.2 50.4473 92.5 50.4473C183 128.847 273.5 207.247 364 285.647Z"
            fill="url(#paint4_linear_1266_5631)" />
    <defs>
        <linearGradient id="paint0_linear_1266_5631" x1="191.79" y1="86.0892" x2="292.563"
                y2="86.0892" gradientUnits="userSpaceOnUse">
            <stop offset="0.513" stop-color="#4CB6E7" />
            <stop offset="1" stop-color="#83CAAE" />
        </linearGradient>
        <linearGradient id="paint1_linear_1266_5631" x1="262.96" y1="53.9923" x2="291.81"
                y2="53.9923" gradientUnits="userSpaceOnUse">
            <stop offset="0.6182" stop-color="#695CA6" />
            <stop offset="1" stop-color="#83CAAE" />
        </linearGradient>
        <linearGradient id="paint2_linear_1266_5631" x1="272.572" y1="82.5287" x2="323.949"
                y2="82.5287" gradientUnits="userSpaceOnUse">
            <stop stop-color="#4CB6E7" />
            <stop offset="0.5503" stop-color="#7EC8B3" />
            <stop offset="0.5726" stop-color="#81C9B0" />
            <stop offset="1" stop-color="#83CAAE" />
        </linearGradient>
        <linearGradient id="paint3_linear_1266_5631" x1="282.51" y1="80.7183" x2="347.891"
                y2="80.7183" gradientUnits="userSpaceOnUse">
            <stop stop-color="#4CB6E7" />
            <stop offset="0.5503" stop-color="#7EC8B3" />
            <stop offset="0.5726" stop-color="#81C9B0" />
            <stop offset="1" stop-color="#83CAAE" />
        </linearGradient>
        <linearGradient id="paint4_linear_1266_5631" x1="31.7" y1="168.007" x2="364.04" y2="168.007"
                gradientUnits="userSpaceOnUse">
            <stop stop-color="#695CA6" />
            <stop offset="0.513" stop-color="#4CB6E7" />
            <stop offset="1" stop-color="#83CAAE" />
        </linearGradient>
    </defs>
</svg>
